<?xml version="1.0" standalone="no"?>
<!DOCTYPE svg PUBLIC "-//W3C//DTD SVG 20010904//EN"
 "http://www.w3.org/TR/2001/REC-SVG-20010904/DTD/svg10.dtd">
<svg version="1.0" xmlns="http://www.w3.org/2000/svg"
 width="1262.000000pt" height="183.000000pt" viewBox="0 0 1262.000000 183.000000"
 preserveAspectRatio="xMidYMid meet">

<g transform="translate(0.000000,183.000000) scale(0.100000,-0.100000)"
fill="#000000" stroke="none">
<path d="M1990 1775 c0 -34 -1 -35 -40 -35 l-40 0 0 -55 0 -55 40 0 40 0 0
-60 0 -60 -40 0 -40 0 0 -55 0 -55 45 0 c33 0 45 4 45 15 0 10 -10 15 -30 15
-23 0 -30 5 -30 19 0 16 8 20 38 23 l37 3 3 93 3 92 -41 0 c-33 0 -40 3 -40
19 0 16 8 20 38 23 35 3 37 5 40 41 3 29 7 37 23 37 18 0 19 -9 19 -215 l0
-215 -75 0 -75 0 0 -245 0 -245 130 0 130 0 0 40 0 40 80 0 80 0 0 75 0 75 75
0 75 0 0 55 0 55 -130 0 -130 0 0 -80 0 -80 -80 0 -80 0 0 -35 c0 -28 -4 -35
-20 -35 -19 0 -20 7 -20 135 0 128 1 135 20 135 18 0 20 -7 20 -75 l0 -75 55
0 55 0 0 75 0 75 40 0 40 0 0 40 c0 33 3 40 19 40 16 0 20 -8 23 -37 l3 -38
53 -3 52 -3 0 210 0 211 -115 0 -115 0 0 60 0 60 140 0 140 0 0 -40 c0 -39 1
-40 35 -40 28 0 35 -4 35 -20 0 -16 -7 -20 -35 -20 l-35 0 0 -55 0 -55 35 0
c28 0 35 -4 35 -20 0 -16 -7 -20 -35 -20 l-35 0 0 -135 0 -135 35 0 35 0 0
-100 0 -100 -35 0 -35 0 0 -50 0 -50 35 0 c31 0 35 -3 35 -25 0 -22 -4 -25
-35 -25 -34 0 -35 -1 -35 -40 l0 -40 -40 0 -40 0 0 -75 0 -75 -41 0 -40 0 3
-53 3 -52 38 -3 c34 -3 37 -6 37 -33 0 -19 5 -29 15 -29 11 0 15 12 15 45 0
45 0 45 -35 45 -31 0 -35 3 -35 25 0 22 4 25 35 25 l35 0 0 75 0 75 40 0 40 0
0 40 0 40 41 0 40 0 -3 53 -3 52 -37 3 c-29 2 -38 8 -38 22 0 14 9 20 38 22
l37 3 3 128 3 127 -41 0 -40 0 0 99 0 100 38 3 37 3 3 53 3 52 -40 0 c-37 0
-41 2 -41 25 0 23 4 25 41 25 l40 0 -3 53 -3 52 -37 3 c-36 3 -38 5 -38 38 l0
34 -170 0 -170 0 0 -90 0 -90 115 0 115 0 0 -180 c0 -173 -1 -180 -20 -180
-17 0 -20 7 -20 40 l0 40 -55 0 -55 0 0 -40 0 -40 -40 0 -40 0 0 -75 c0 -68
-2 -75 -20 -75 -18 0 -20 7 -20 75 l0 75 -55 0 -55 0 0 -165 0 -165 55 0 55 0
0 35 0 35 75 0 75 0 0 80 0 81 98 -3 c92 -3 97 -4 100 -25 3 -22 1 -23 -77
-23 l-81 0 0 -75 0 -75 -75 0 -75 0 0 -40 0 -40 -100 0 -100 0 0 215 0 215 80
0 80 0 0 245 0 245 -55 0 -55 0 0 -35z"/>
<path d="M2930 1775 c0 -32 -2 -35 -30 -35 -23 0 -30 -4 -30 -20 0 -17 7 -20
45 -20 l45 0 0 40 c0 36 3 40 25 40 24 0 25 -2 25 -75 l0 -75 50 0 50 0 0 75
c0 73 1 75 25 75 24 0 25 -2 25 -75 l0 -75 40 0 40 0 0 -60 c0 -57 -1 -60 -25
-60 -22 0 -25 4 -25 35 l0 35 -115 0 -115 0 0 40 0 40 -55 0 -55 0 0 -130 0
-130 55 0 55 0 0 35 0 35 60 0 c53 0 60 -2 60 -20 0 -16 -7 -20 -35 -20 l-35
0 0 -55 0 -55 35 0 35 0 0 -60 0 -60 -35 0 c-34 0 -35 -1 -35 -40 0 -39 -1
-40 -35 -40 -24 0 -35 -5 -35 -15 0 -11 12 -15 50 -15 l50 0 0 40 c0 39 1 40
35 40 l35 0 0 90 0 90 -35 0 c-31 0 -35 3 -35 25 0 22 4 25 35 25 l35 0 0 55
0 55 -90 0 -90 0 0 -40 c0 -36 -2 -40 -25 -40 l-26 0 3 98 c3 92 4 97 26 100
20 3 22 -1 22 -37 l0 -41 115 0 115 0 0 -41 0 -40 53 3 52 3 3 93 3 92 -41 0
-40 0 0 75 0 75 -55 0 -55 0 0 -75 c0 -68 -2 -75 -20 -75 -18 0 -20 7 -20 75
l0 75 -55 0 -55 0 0 -35z"/>
<path d="M3240 1755 l0 -56 83 3 c65 2 82 6 82 18 0 12 -15 16 -67 18 -60 3
-68 5 -68 22 0 16 7 20 30 20 20 0 30 5 30 15 0 11 -12 15 -45 15 l-45 0 0
-55z"/>
<path d="M4232 1683 l3 -128 38 -3 c28 -2 37 -8 37 -22 0 -13 -8 -20 -27 -22
-17 -2 -29 -10 -31 -20 -3 -15 4 -18 42 -18 l46 0 0 55 0 55 -35 0 -35 0 0
100 c0 93 1 100 20 100 18 0 20 -7 20 -75 l0 -75 95 0 95 0 0 75 0 75 30 0
c20 0 30 5 30 15 0 11 -12 15 -45 15 l-45 0 0 -75 0 -75 -65 0 -65 0 0 75 0
75 -55 0 -56 0 3 -127z"/>
<path d="M5200 1776 c0 -33 -2 -35 -37 -38 l-38 -3 -3 -52 -3 -52 78 -3 78 -3
3 -97 3 -98 -41 0 -40 0 0 -155 0 -155 -60 0 c-57 0 -60 1 -60 25 0 22 4 25
35 25 l35 0 0 50 0 50 -35 0 -35 0 0 65 0 65 35 0 35 0 0 55 0 55 -35 0 -35 0
0 105 c0 99 -1 105 -20 105 -20 0 -20 -5 -18 -122 l3 -123 38 -3 c28 -2 37 -8
37 -22 0 -14 -9 -20 -37 -22 l-38 -3 0 -90 0 -90 38 -3 c28 -2 37 -8 37 -22 0
-14 -9 -20 -37 -22 l-38 -3 -3 -52 -3 -53 95 0 96 0 0 155 0 155 40 0 40 0 0
130 0 130 -80 0 c-73 0 -80 2 -80 20 0 17 7 20 40 20 l40 0 0 40 0 40 100 0
100 0 0 -41 0 -40 53 3 52 3 3 38 c3 29 7 37 23 37 17 0 19 -7 19 -75 l0 -75
40 0 40 0 0 -40 0 -40 55 0 55 0 0 75 0 75 35 0 c34 0 35 1 35 40 l0 40 65 0
65 0 0 -40 0 -40 115 0 c108 0 115 -1 115 -20 0 -18 -8 -20 -147 -22 -106 -2
-147 -6 -151 -15 -3 -10 34 -13 163 -13 l166 0 -3 53 -3 52 -112 3 -113 3 0
34 0 35 -95 0 -95 0 0 -35 c0 -33 -2 -35 -35 -35 l-35 0 0 -80 c0 -79 0 -80
-25 -80 -22 0 -25 4 -25 40 l0 40 -40 0 -40 0 0 75 0 75 -50 0 -50 0 0 -35 c0
-31 -3 -35 -25 -35 -22 0 -25 4 -25 35 l0 35 -130 0 -130 0 0 -34z"/>
<path d="M5660 1765 c0 -33 4 -45 15 -45 10 0 15 10 15 30 0 27 3 30 30 30 20
0 30 5 30 15 0 11 -12 15 -45 15 l-45 0 0 -45z"/>
<path d="M7000 1765 c0 -38 3 -45 20 -45 16 0 20 7 20 30 l0 30 180 0 c153 0
180 2 180 15 0 13 -29 15 -200 15 l-200 0 0 -45z"/>
<path d="M8530 1776 c0 -33 -2 -35 -37 -38 l-38 -3 -3 -52 -3 -53 40 0 41 0 0
-59 0 -60 -37 -3 -38 -3 -3 -52 -3 -53 51 0 c58 0 67 23 12 28 -24 2 -32 8
-32 23 0 16 7 19 40 19 l40 0 0 95 0 95 -40 0 c-33 0 -40 3 -40 20 0 17 7 20
40 20 l40 0 0 40 c0 36 3 40 25 40 l25 0 0 -215 0 -215 -80 0 -80 0 0 -245 0
-245 129 0 130 0 3 37 3 38 78 3 77 3 0 74 0 75 75 0 75 0 0 55 0 55 -130 0
-130 0 0 -80 0 -80 -75 0 -75 0 0 -35 c0 -31 -3 -35 -25 -35 l-25 0 0 135 0
135 25 0 c24 0 25 -2 25 -75 l0 -75 50 0 50 0 0 75 0 75 40 0 40 0 0 40 c0 36
3 40 25 40 23 0 25 -4 25 -41 l0 -40 53 3 52 3 0 205 0 205 -117 3 -118 3 0
59 0 60 140 0 140 0 0 -40 0 -40 40 0 c33 0 40 -3 40 -20 0 -17 -7 -20 -40
-20 l-40 0 0 -55 0 -55 40 0 c33 0 40 -3 40 -20 0 -17 -7 -20 -40 -20 l-40 0
0 -135 0 -135 40 0 40 0 0 -100 0 -100 -40 0 -40 0 0 -49 0 -50 38 -3 c30 -2
38 -7 40 -25 3 -21 -1 -23 -37 -23 l-41 0 0 -40 0 -40 -40 0 -40 0 0 -75 0
-75 -35 0 -35 0 0 -55 0 -55 35 0 c32 0 35 -2 35 -31 0 -24 4 -30 18 -27 12 2
18 15 20 46 l3 42 -40 0 c-37 0 -41 2 -41 25 0 23 4 25 40 25 l40 0 0 75 0 75
35 0 c34 0 35 1 35 40 l0 40 40 0 40 0 0 55 0 55 -40 0 c-33 0 -40 3 -40 20 0
17 7 20 40 20 l40 0 0 130 0 130 -40 0 -40 0 0 99 0 100 38 3 37 3 3 53 3 52
-40 0 c-37 0 -41 2 -41 25 0 23 4 25 41 25 l40 0 -3 53 -3 52 -37 3 c-36 3
-38 5 -38 38 l0 34 -170 0 -170 0 0 -90 0 -90 115 0 115 0 0 -180 c0 -173 -1
-180 -20 -180 -17 0 -20 7 -20 40 l0 40 -55 0 -55 0 0 -40 0 -40 -40 0 -40 0
0 -75 c0 -68 -2 -75 -20 -75 -18 0 -20 7 -20 75 l0 75 -55 0 -55 0 0 -165 0
-165 55 0 55 0 0 35 0 35 75 0 75 0 0 80 0 80 100 0 100 0 0 -25 c0 -24 -2
-25 -75 -25 l-75 0 0 -75 0 -74 -77 -3 -78 -3 -3 -37 -3 -38 -100 0 -99 0 0
215 0 215 80 0 80 0 0 245 0 245 -55 0 -55 0 0 -34z"/>
<path d="M9490 1795 c0 -12 19 -15 115 -15 96 0 115 3 115 15 0 12 -19 15
-115 15 -96 0 -115 -3 -115 -15z"/>
<path d="M9780 1776 c0 -33 -2 -35 -37 -38 l-38 -3 -3 -77 -3 -78 -34 0 c-33
0 -35 -2 -35 -35 0 -31 -3 -35 -25 -35 l-25 0 0 115 0 116 -92 -3 -93 -3 -3
-52 -3 -53 40 0 41 0 0 -99 0 -100 -37 -3 -38 -3 -3 -52 -3 -53 40 0 41 0 0
-59 0 -60 -37 -3 -38 -3 -3 -167 -2 -168 95 0 95 0 0 55 0 55 -40 0 c-33 0
-40 3 -40 20 0 17 7 20 40 20 l40 0 0 85 c0 69 -3 85 -15 85 -12 0 -15 -14
-15 -70 l0 -70 -40 0 -40 0 0 -50 0 -50 40 0 c36 0 40 -2 40 -25 0 -24 -3 -25
-60 -25 l-60 0 0 140 0 140 35 0 35 0 0 90 0 90 -35 0 c-31 0 -35 3 -35 25 0
22 4 25 35 25 l35 0 0 130 0 130 -35 0 c-28 0 -35 4 -35 20 0 18 7 20 60 20
l60 0 0 -116 0 -115 53 3 52 3 3 38 c3 35 5 37 38 37 l34 0 0 75 0 75 40 0 40
0 0 40 0 40 70 0 c56 0 70 3 70 15 0 12 -16 15 -85 15 l-85 0 0 -34z"/>
<path d="M10010 1775 l0 -34 -67 -3 c-55 -2 -68 -6 -71 -20 -3 -16 6 -18 82
-18 l86 0 0 40 0 40 255 0 c248 0 255 -1 255 -20 0 -19 -7 -20 -115 -20 l-115
0 0 -40 0 -40 -40 0 -40 0 0 -40 0 -40 -100 0 -100 0 0 40 0 40 -130 0 -130 0
0 -55 0 -55 40 0 c33 0 40 -3 40 -20 0 -17 -8 -19 -77 -22 l-78 -3 -3 -37 -3
-38 -75 0 -74 0 0 -95 0 -95 40 0 40 0 0 -150 0 -150 35 0 c31 0 35 -3 35 -25
0 -22 -4 -25 -35 -25 l-35 0 0 -90 0 -90 50 0 50 0 0 35 0 35 115 0 115 0 0
170 0 170 -49 0 -50 0 -3 -37 c-3 -36 -5 -38 -40 -41 l-38 -3 0 -90 0 -89 55
0 55 0 0 45 c0 33 -4 45 -15 45 -10 0 -15 -10 -15 -30 0 -25 -4 -30 -25 -30
-24 0 -25 3 -25 60 l0 60 40 0 40 0 0 40 c0 33 3 40 20 40 19 0 20 -7 20 -140
l0 -140 -115 0 -115 0 0 -35 c0 -28 -4 -35 -20 -35 -18 0 -20 7 -20 60 l0 60
35 0 35 0 0 55 0 55 -35 0 -35 0 0 150 0 150 -40 0 -40 0 0 65 0 65 75 0 75 0
0 35 0 34 78 3 77 3 3 53 3 52 -40 0 c-37 0 -41 2 -41 25 l0 25 100 0 100 0 0
-40 0 -40 130 0 130 0 0 40 0 40 40 0 c39 0 40 1 40 35 l0 35 115 0 115 0 0
55 0 55 -285 0 -285 0 0 -35z"/>
<path d="M10640 1795 c0 -11 11 -15 40 -15 29 0 40 4 40 15 0 11 -11 15 -40
15 -29 0 -40 -4 -40 -15z"/>
<path d="M10920 1720 l0 -90 45 0 c33 0 45 4 45 15 0 10 -10 15 -30 15 l-30 0
0 60 0 60 60 0 c53 0 60 -2 60 -20 0 -16 -7 -20 -30 -20 -23 0 -30 -4 -30 -20
0 -17 7 -20 45 -20 l45 0 0 55 0 55 -90 0 -90 0 0 -90z"/>
<path d="M11220 1720 l0 -90 50 0 c38 0 50 4 50 15 0 10 -10 15 -30 15 l-30 0
0 60 c0 53 2 60 20 60 17 0 20 -7 20 -40 l0 -40 40 0 c39 0 40 -1 40 -35 l0
-35 55 0 55 0 0 90 0 90 -50 0 c-38 0 -50 -4 -50 -15 0 -10 10 -15 30 -15 l30
0 0 -60 c0 -53 -2 -60 -19 -60 -16 0 -20 8 -23 38 -3 35 -5 37 -40 40 -36 3
-38 5 -38 38 l0 34 -55 0 -55 0 0 -90z"/>
<path d="M12160 1795 c0 -11 11 -15 40 -15 29 0 40 4 40 15 0 11 -11 15 -40
15 -29 0 -40 -4 -40 -15z"/>
<path d="M12300 1735 l0 -75 -100 0 c-93 0 -100 1 -100 20 0 18 7 20 71 20 62
0 70 2 67 18 -3 14 -16 17 -86 20 l-82 3 0 -56 0 -55 130 0 130 0 0 75 c0 73
1 75 25 75 l25 0 0 -100 0 -100 -115 0 -115 0 0 -55 0 -55 35 0 c28 0 35 -4
35 -20 0 -16 -7 -20 -35 -20 l-34 0 -3 -77 c-3 -72 -5 -78 -25 -81 -21 -3 -23
1 -23 37 l0 41 -55 0 -55 0 0 -75 0 -75 -35 0 -35 0 0 -55 0 -55 35 0 35 0 0
-60 0 -60 -100 0 -100 0 0 75 0 75 -55 0 -55 0 2 -167 3 -168 53 -3 52 -3 0
40 c0 37 2 41 25 41 23 0 25 -4 25 -40 l0 -40 115 0 115 0 0 -34 c0 -33 2 -35
38 -38 30 -2 38 -7 40 -25 3 -21 -1 -23 -37 -23 l-41 0 0 -75 0 -75 -60 0 -60
0 0 100 c0 93 1 100 20 100 18 0 20 -7 20 -70 0 -56 3 -70 15 -70 12 0 15 16
15 85 l0 85 -50 0 -50 0 0 -135 0 -135 90 0 90 0 0 80 0 80 41 0 40 0 -3 53
-3 52 -37 3 c-36 3 -38 5 -38 38 l0 34 -115 0 -115 0 0 40 0 40 -55 0 -55 0 0
-40 c0 -33 -3 -40 -20 -40 -19 0 -20 7 -20 140 0 133 1 140 20 140 18 0 20 -7
20 -75 l0 -75 130 0 130 0 0 90 0 90 -35 0 c-31 0 -35 3 -35 25 0 22 4 25 35
25 l35 0 0 75 c0 73 1 75 25 75 23 0 25 -4 25 -41 l0 -40 53 3 52 3 3 78 3 77
34 0 35 0 0 55 0 55 -35 0 c-28 0 -35 4 -35 20 0 19 7 20 115 20 l115 0 0 130
0 130 -55 0 -55 0 0 -75z"/>
<path d="M12530 1776 c0 -33 -2 -35 -37 -38 l-38 -3 -3 -92 -3 -93 41 0 40 0
0 -70 c0 -56 3 -70 15 -70 12 0 15 16 15 85 l0 85 -40 0 -40 0 0 60 0 60 40 0
40 0 0 40 c0 36 3 40 25 40 24 0 25 -3 25 -59 0 -60 0 -60 -32 -63 -49 -5 -48
-28 1 -28 l41 0 0 90 0 90 -45 0 c-45 0 -45 0 -45 -34z"/>
<path d="M4390 1760 c0 -29 4 -40 15 -40 11 0 15 11 15 40 0 29 -4 40 -15 40
-11 0 -15 -11 -15 -40z"/>
<path d="M6930 1761 c0 -30 4 -41 16 -41 11 0 14 9 12 37 -4 52 -28 56 -28 4z"/>
<path d="M11150 1760 c0 -29 4 -40 15 -40 11 0 15 11 15 40 0 29 -4 40 -15 40
-11 0 -15 -11 -15 -40z"/>
<path d="M510 1770 c0 -18 6 -20 65 -20 58 0 65 -2 65 -20 0 -18 -8 -20 -112
-22 l-113 -3 -3 -37 c-3 -36 -5 -38 -38 -38 l-34 0 0 -55 0 -55 35 0 c33 0 35
-2 35 -35 l0 -35 95 0 95 0 0 55 0 55 -40 0 c-33 0 -40 3 -40 20 0 19 7 20
140 20 l140 0 0 -75 0 -75 34 0 c33 0 35 -2 38 -37 l3 -38 118 -3 117 -3 0
-39 c0 -39 1 -40 35 -40 28 0 35 -4 35 -20 0 -18 -7 -20 -60 -20 l-60 0 0 40
0 40 -155 0 -155 0 0 116 0 115 -52 -3 -53 -3 -3 -77 -3 -78 -75 0 -75 0 3
-52 3 -53 38 -3 c35 -3 37 -5 37 -38 0 -32 2 -34 35 -34 l35 0 0 -60 0 -60
-35 0 -35 0 0 -125 c0 -104 2 -125 15 -125 12 0 15 18 15 104 l0 105 38 3 37
3 3 93 3 92 -40 0 c-39 0 -40 1 -43 38 -3 35 -5 37 -40 40 -30 3 -38 7 -38 23
0 17 7 19 80 19 l80 0 0 75 c0 68 2 75 20 75 18 0 20 -8 22 -112 l3 -113 153
-3 152 -3 0 -34 0 -35 90 0 90 0 0 55 0 55 -35 0 c-33 0 -35 2 -35 35 l0 35
-115 0 -115 0 0 40 0 40 -40 0 -40 0 0 75 0 75 -171 0 -170 0 3 -52 3 -53 38
-3 c29 -3 37 -7 37 -23 0 -17 -7 -19 -59 -19 l-60 0 -3 38 c-3 35 -5 37 -40
40 -29 2 -38 8 -38 22 0 14 9 20 38 22 35 3 37 5 40 41 l3 37 115 0 115 0 -3
53 -3 52 -82 3 c-78 3 -83 2 -83 -18z"/>
<path d="M800 1751 c0 -37 -2 -41 -25 -41 -21 0 -25 5 -25 30 0 20 -5 30 -15
30 -11 0 -15 -12 -15 -45 l0 -45 55 0 55 0 0 35 c0 28 4 35 19 35 14 0 21 -8
23 -27 2 -17 9 -28 18 -28 11 0 15 12 15 45 l0 45 -52 3 -53 3 0 -40z"/>
<path d="M1030 1751 c0 -37 -2 -41 -25 -41 -21 0 -25 5 -25 30 0 20 -5 30 -15
30 -11 0 -15 -12 -15 -45 l0 -45 55 0 55 0 0 35 c0 31 3 35 25 35 24 0 25 -2
25 -75 l0 -75 50 0 50 0 0 40 c0 36 3 40 25 40 24 0 25 -3 25 -59 l0 -60 -37
-3 -38 -3 -3 -82 c-2 -69 0 -83 13 -83 12 0 15 13 15 65 l0 65 40 0 40 0 0 95
0 95 -55 0 -55 0 0 -40 c0 -33 -3 -40 -20 -40 -17 0 -19 8 -22 78 l-3 77 -52
3 -53 3 0 -40z"/>
<path d="M2235 1730 c-14 -22 12 -31 81 -28 53 2 69 6 69 18 0 12 -16 16 -72
18 -45 2 -74 -1 -78 -8z"/>
<path d="M4547 1734 c-4 -4 -7 -29 -7 -56 l0 -48 40 0 c36 0 40 -2 40 -25 0
-22 -4 -25 -40 -25 l-40 0 0 -90 0 -90 55 0 55 0 0 45 c0 33 -4 45 -15 45 -10
0 -15 -10 -15 -30 0 -25 -4 -30 -25 -30 -24 0 -25 3 -25 60 l0 60 40 0 40 0 0
55 0 55 -40 0 c-33 0 -40 3 -40 20 0 18 7 20 65 20 l65 0 0 -146 c0 -112 3
-145 13 -141 9 3 12 44 12 163 l0 159 -85 3 c-47 1 -89 0 -93 -4z"/>
<path d="M5297 1734 c-20 -20 -6 -35 31 -32 47 4 52 32 7 36 -17 2 -34 0 -38
-4z"/>
<path d="M7160 1660 l0 -80 -30 0 c-20 0 -30 -5 -30 -15 0 -11 12 -15 45 -15
l45 0 0 75 0 75 60 0 c53 0 60 -2 60 -19 0 -16 -8 -20 -37 -23 -37 -3 -38 -4
-41 -45 -3 -38 -1 -43 17 -43 17 0 21 6 21 30 0 28 3 30 35 30 l35 0 0 55 0
55 -90 0 -90 0 0 -80z"/>
<path d="M7390 1661 l0 -81 -40 0 -40 0 0 -55 0 -55 40 0 c33 0 40 -3 40 -20
0 -18 -7 -20 -59 -20 l-60 0 -3 38 -3 37 -90 0 -90 0 -3 -52 -3 -53 40 0 41 0
0 -140 0 -140 -40 0 -40 0 0 -55 0 -55 40 0 40 0 0 -75 0 -75 34 0 c33 0 35
-2 38 -37 l3 -38 52 -3 52 -3 3 78 3 78 58 3 c55 3 57 2 57 -23 0 -22 -4 -25
-35 -25 l-35 0 0 -75 0 -74 -77 -3 -78 -3 -3 -37 c-3 -30 -7 -38 -23 -38 -17
0 -19 7 -19 75 l0 75 -130 0 -130 0 0 -35 c0 -34 -1 -35 -40 -35 l-40 0 0 -95
0 -95 40 0 40 0 0 -60 c0 -57 -1 -60 -25 -60 -21 0 -25 5 -25 30 0 20 -5 30
-15 30 -11 0 -15 -12 -15 -45 l0 -45 55 0 55 0 0 90 0 90 -40 0 -40 0 0 65 0
65 40 0 c39 0 40 1 40 35 l0 35 100 0 100 0 0 -75 0 -75 55 0 55 0 0 40 0 40
75 0 75 0 0 75 0 75 41 0 40 0 -3 53 -3 52 -92 3 -93 3 0 -81 c0 -73 -2 -80
-20 -80 -17 0 -20 7 -20 40 l0 40 -40 0 -40 0 0 75 0 75 -40 0 c-36 0 -40 3
-40 25 0 23 4 25 40 25 l40 0 0 170 0 170 -40 0 c-33 0 -40 3 -40 20 0 18 7
20 60 20 l60 0 0 -35 0 -35 96 0 95 0 -3 53 -3 52 -37 3 c-30 3 -38 7 -38 23
0 16 7 19 40 19 l40 0 0 75 c0 68 2 75 20 75 18 0 20 -7 20 -65 0 -59 2 -65
20 -65 20 0 21 5 18 83 l-3 82 -52 3 -53 3 0 -80z"/>
<path d="M8775 1730 c-13 -22 9 -30 81 -30 66 0 75 2 72 18 -3 14 -16 18 -75
20 -42 2 -74 -1 -78 -8z"/>
<path d="M10167 1734 c-4 -4 -7 -22 -7 -41 0 -26 -4 -33 -20 -33 -16 0 -20 7
-20 30 0 20 -5 30 -15 30 -11 0 -15 -12 -15 -45 l0 -45 50 0 50 0 0 34 c0 32
3 35 33 38 49 5 43 32 -8 36 -23 2 -44 0 -48 -4z"/>
<path d="M10627 1734 c-4 -4 -7 -22 -7 -41 l0 -33 -115 0 -115 0 0 -55 0 -55
50 0 c38 0 50 4 50 15 0 10 -10 15 -30 15 -25 0 -30 4 -30 25 l0 25 115 0 115
0 0 35 0 35 60 0 60 0 0 -135 0 -135 -40 0 -40 0 0 -55 0 -55 45 0 c33 0 45 4
45 15 0 10 -10 15 -30 15 -25 0 -30 4 -30 25 0 23 4 25 40 25 l40 0 -2 168 -3
167 -85 3 c-47 1 -89 0 -93 -4z"/>
<path d="M6850 1520 l0 -200 40 0 40 0 0 -41 0 -40 53 3 52 3 0 205 0 205 -52
3 -53 3 0 -125 c0 -105 2 -126 15 -126 12 0 15 19 15 110 0 103 1 110 20 110
19 0 20 -7 20 -180 0 -173 -1 -180 -20 -180 -17 0 -20 7 -20 40 l0 40 -40 0
-40 0 0 185 c0 158 -2 185 -15 185 -13 0 -15 -29 -15 -200z"/>
<path d="M7080 1680 c0 -29 4 -40 15 -40 11 0 15 11 15 40 0 29 -4 40 -15 40
-11 0 -15 -11 -15 -40z"/>
<path d="M9630 1679 c0 -52 24 -48 28 4 2 28 -1 37 -12 37 -12 0 -16 -11 -16
-41z"/>
<path d="M11530 1680 c0 -29 4 -40 15 -40 11 0 15 11 15 40 0 29 -4 40 -15 40
-11 0 -15 -11 -15 -40z"/>
<path d="M1340 1645 l0 -45 45 0 c33 0 45 4 45 15 0 10 -10 15 -30 15 -27 0
-30 3 -30 30 0 20 -5 30 -15 30 -11 0 -15 -12 -15 -45z"/>
<path d="M3310 1615 c0 -38 3 -45 20 -45 16 0 20 7 20 30 l0 30 60 0 c57 0 60
-1 60 -25 0 -22 -4 -25 -40 -25 -39 0 -40 -1 -40 -34 0 -33 -2 -35 -37 -38
-36 -3 -38 -5 -41 -40 l-3 -38 -75 0 -74 0 0 -55 0 -55 40 0 40 0 0 -41 0 -40
53 3 52 3 3 38 3 37 115 0 114 0 0 45 c0 38 -3 45 -20 45 -16 0 -20 -7 -20
-30 l0 -30 -115 0 -115 0 0 -40 c0 -33 -3 -40 -20 -40 -17 0 -20 7 -20 40 l0
40 -40 0 c-36 0 -40 3 -40 25 0 25 1 25 80 25 l80 0 0 35 c0 33 2 35 35 35 34
0 35 1 35 40 l0 40 40 0 40 0 0 55 0 55 -95 0 -95 0 0 -45z"/>
<path d="M4080 1605 l0 -55 40 0 40 0 0 -75 0 -75 130 0 130 0 0 35 c0 31 3
35 25 35 24 0 25 -3 25 -60 l0 -60 -81 0 -80 0 3 -52 3 -53 38 -3 c35 -3 37
-5 37 -38 l0 -34 55 0 55 0 0 35 0 35 60 0 60 0 0 -75 0 -75 41 0 c36 0 40 -2
37 -22 -2 -19 -10 -24 -40 -26 l-38 -3 0 -75 0 -74 -140 0 -140 0 0 60 0 60
65 0 c58 0 65 -2 65 -19 0 -15 -8 -21 -32 -23 -55 -5 -46 -28 11 -28 l51 0 0
50 0 50 -95 0 -95 0 0 -90 0 -90 170 0 170 0 0 74 0 75 38 3 37 3 3 53 3 52
-40 0 -41 0 0 75 0 75 -90 0 -90 0 0 -35 c0 -31 -3 -35 -25 -35 -22 0 -25 4
-25 34 0 33 -2 35 -37 38 -31 2 -39 7 -41 26 -3 21 -1 22 78 22 l81 0 -3 93
-3 92 -52 3 -53 3 0 -40 0 -41 -100 0 -100 0 0 75 0 75 -40 0 c-36 0 -40 3
-40 25 0 21 5 25 30 25 20 0 30 5 30 15 0 11 -12 15 -45 15 l-45 0 0 -55z"/>
<path d="M5447 1653 c-14 -14 -6 -22 26 -25 24 -2 33 -8 35 -25 3 -22 1 -23
-78 -23 l-81 0 3 -52 3 -53 153 -3 152 -3 0 -34 0 -35 115 0 115 0 0 -40 0
-40 40 0 40 0 0 -75 0 -75 75 0 c73 0 75 -1 75 -25 0 -24 -2 -25 -75 -25 l-75
0 0 -40 0 -40 -40 0 -40 0 0 -50 0 -50 130 0 130 0 0 50 0 50 -45 0 c-33 0
-45 -4 -45 -15 0 -10 10 -15 30 -15 23 0 30 -4 30 -20 0 -19 -7 -20 -100 -20
-93 0 -100 1 -100 20 0 17 7 20 40 20 l40 0 0 40 0 40 75 0 75 0 0 55 0 55
-75 0 -75 0 0 75 0 75 -40 0 -40 0 0 40 0 40 -115 0 -115 0 0 40 0 40 -155 0
c-148 0 -155 1 -155 20 0 18 7 20 80 20 l80 0 0 55 0 55 -43 0 c-24 0 -47 -3
-50 -7z"/>
<path d="M6290 1645 c0 -11 11 -15 40 -15 29 0 40 4 40 15 0 11 -11 15 -40 15
-29 0 -40 -4 -40 -15z"/>
<path d="M11070 1620 l0 -40 -41 0 -40 0 3 -52 3 -53 78 -3 77 -3 0 -34 c0
-33 2 -35 35 -35 31 0 35 -3 35 -25 0 -24 -3 -25 -60 -25 l-60 0 0 30 c0 20
-5 30 -15 30 -11 0 -15 -12 -15 -45 l0 -45 96 0 95 0 -3 53 -3 52 -37 3 c-35
3 -37 5 -40 40 l-3 37 -72 3 c-65 3 -73 5 -73 22 0 16 7 20 35 20 34 0 35 1
35 40 0 38 2 40 30 40 20 0 30 5 30 15 0 11 -12 15 -45 15 l-45 0 0 -40z"/>
<path d="M5810 1595 l0 -45 40 0 c33 0 40 -3 40 -20 0 -17 -8 -19 -67 -22 -53
-2 -68 -6 -68 -18 0 -12 17 -16 83 -18 l82 -3 0 56 0 55 -40 0 c-38 0 -40 2
-40 30 0 20 -5 30 -15 30 -11 0 -15 -12 -15 -45z"/>
<path d="M890 1615 c0 -10 10 -15 30 -15 23 0 30 -4 30 -20 0 -16 -7 -20 -31
-20 -24 0 -30 -4 -27 -17 2 -13 15 -19 46 -21 l42 -3 0 55 0 56 -45 0 c-33 0
-45 -4 -45 -15z"/>
<path d="M260 1590 c0 -27 -3 -30 -30 -30 -23 0 -30 -4 -30 -20 0 -17 7 -20
45 -20 l45 0 0 50 c0 38 -4 50 -15 50 -10 0 -15 -10 -15 -30z"/>
<path d="M1030 1570 l0 -50 40 0 c33 0 40 -3 40 -20 0 -18 -7 -20 -70 -20 -56
0 -70 -3 -70 -15 0 -12 16 -15 86 -15 l85 0 -3 53 -3 52 -37 3 c-35 3 -38 6
-38 33 0 19 -5 29 -15 29 -11 0 -15 -12 -15 -50z"/>
<path d="M2220 1546 c0 -33 -2 -35 -37 -38 l-38 -3 0 -84 c0 -59 4 -86 13 -88
9 -4 12 14 12 66 l0 71 40 0 40 0 0 40 c0 33 3 40 20 40 18 0 20 -7 20 -60 l0
-60 -30 0 c-20 0 -30 -5 -30 -15 0 -11 12 -15 50 -15 l50 0 0 90 0 90 -55 0
-55 0 0 -34z"/>
<path d="M4400 1565 c0 -11 11 -15 40 -15 29 0 40 4 40 15 0 11 -11 15 -40 15
-29 0 -40 -4 -40 -15z"/>
<path d="M5140 1565 c0 -10 10 -15 30 -15 27 0 30 -3 30 -30 0 -20 5 -30 15
-30 11 0 15 12 15 45 l0 45 -45 0 c-33 0 -45 -4 -45 -15z"/>
<path d="M5970 1525 l0 -55 35 0 35 0 0 -75 0 -75 55 0 55 0 0 40 c0 36 3 40
25 40 23 0 25 -4 25 -40 l0 -40 90 0 90 0 0 40 c0 36 3 40 25 40 l25 0 0 -115
0 -115 90 0 90 0 0 45 c0 33 -4 45 -15 45 -10 0 -15 -10 -15 -30 l0 -30 -60 0
-60 0 0 115 0 115 -55 0 -55 0 0 -40 0 -40 -60 0 -60 0 0 40 0 40 -55 0 -55 0
0 -40 c0 -33 -3 -40 -20 -40 -17 0 -19 8 -22 78 l-3 77 -37 3 c-30 3 -38 7
-38 23 0 17 7 19 60 19 l60 0 0 -40 0 -40 75 0 75 0 0 -31 c0 -24 4 -30 18
-27 13 3 17 13 17 48 l0 45 -77 3 -78 3 0 34 0 35 -90 0 -90 0 0 -55z"/>
<path d="M6210 1565 c0 -12 19 -15 110 -15 103 0 110 -1 110 -20 0 -16 -7 -20
-30 -20 -23 0 -30 -4 -30 -20 0 -17 7 -20 45 -20 l45 0 0 55 0 55 -125 0
c-104 0 -125 -2 -125 -15z"/>
<path d="M8760 1546 c0 -33 -2 -35 -37 -38 l-38 -3 0 -84 c0 -59 4 -86 13 -88
9 -4 12 14 12 66 l0 71 40 0 40 0 0 40 c0 36 3 40 25 40 24 0 25 -3 25 -59 0
-60 0 -60 -32 -63 -55 -5 -46 -28 11 -28 l51 0 0 90 0 90 -55 0 -55 0 0 -34z"/>
<path d="M10560 1565 c0 -11 11 -15 40 -15 29 0 40 4 40 15 0 11 -11 15 -40
15 -29 0 -40 -4 -40 -15z"/>
<path d="M11160 1565 c0 -10 10 -15 30 -15 27 0 30 -3 30 -30 0 -23 4 -30 20
-30 17 0 20 7 20 45 l0 45 -50 0 c-38 0 -50 -4 -50 -15z"/>
<path d="M11300 1410 l0 -170 40 0 c33 0 40 -3 40 -20 0 -18 -7 -20 -60 -20
l-60 0 0 35 0 35 -55 0 -55 0 0 -45 c0 -33 4 -45 15 -45 10 0 15 10 15 30 0
23 4 30 20 30 16 0 20 -7 20 -35 l0 -35 95 0 95 0 0 49 0 50 -37 3 -38 3 -3
138 -3 137 141 0 c132 0 140 -1 140 -19 0 -16 -8 -20 -37 -23 l-38 -3 -3 -132
-3 -133 41 0 40 0 0 -100 0 -100 -40 0 -40 0 0 -90 0 -90 55 0 55 0 0 45 c0
33 -4 45 -15 45 -10 0 -15 -10 -15 -30 0 -25 -4 -30 -25 -30 -24 0 -25 3 -25
60 l0 60 40 0 40 0 0 129 0 130 -37 3 -38 3 -3 98 -3 97 41 0 40 0 0 55 0 55
-170 0 -170 0 0 -170z"/>
<path d="M11990 1535 c0 -33 4 -45 15 -45 10 0 15 10 15 30 0 25 4 30 25 30
24 0 25 -3 25 -60 l0 -60 -60 0 -60 0 0 30 c0 20 -5 30 -15 30 -11 0 -15 -12
-15 -45 l0 -45 90 0 90 0 0 90 0 90 -55 0 -55 0 0 -45z"/>
<path d="M6507 1564 c-4 -4 -7 -22 -7 -41 0 -27 4 -33 21 -33 17 0 20 5 17 37
-3 35 -17 51 -31 37z"/>
<path d="M9397 1564 c-4 -4 -7 -22 -7 -41 0 -27 4 -33 21 -33 17 0 20 5 17 37
-3 35 -17 51 -31 37z"/>
<path d="M9937 1563 c-4 -3 -7 -60 -7 -125 l0 -118 55 0 55 0 0 75 c0 73 1 75
25 75 22 0 25 -4 25 -35 l0 -35 50 0 50 0 0 35 0 35 65 0 65 0 0 -35 c0 -33 2
-35 35 -35 31 0 35 -3 35 -25 0 -22 -4 -25 -35 -25 -34 0 -35 -1 -35 -40 l0
-40 -215 0 -215 0 0 80 0 80 -55 0 -55 0 0 -155 0 -155 -25 0 c-21 0 -25 5
-25 30 0 20 -5 30 -15 30 -11 0 -15 -12 -15 -45 l0 -45 55 0 55 0 0 156 0 155
23 -3 c20 -3 22 -9 25 -81 l3 -77 242 2 242 3 3 38 c3 36 4 37 43 37 l40 0 -3
53 -3 52 -37 3 c-35 3 -37 5 -40 40 l-3 37 -90 0 -90 0 -3 -37 c-2 -29 -8 -38
-22 -38 -14 0 -20 9 -22 38 l-3 37 -52 3 -53 3 0 -80 c0 -80 0 -81 -25 -81
l-25 0 0 110 c0 101 -5 122 -23 103z"/>
<path d="M10700 1541 c0 -27 -3 -30 -37 -33 -36 -3 -38 -5 -41 -40 l-3 -38
-65 0 c-50 0 -64 -3 -64 -15 0 -12 16 -15 85 -15 l85 0 0 35 c0 33 2 35 35 35
l35 0 0 50 c0 38 -4 50 -15 50 -10 0 -15 -10 -15 -29z"/>
<path d="M1352 1543 c3 -15 16 -19 71 -21 l67 -3 0 -34 c0 -35 0 -35 45 -35
33 0 45 4 45 15 0 10 -10 15 -30 15 -28 0 -30 2 -30 40 l0 40 -86 0 c-76 0
-85 -2 -82 -17z"/>
<path d="M3470 1470 c0 -38 -2 -40 -30 -40 -20 0 -30 -5 -30 -15 0 -11 12 -15
45 -15 45 0 45 0 45 35 0 32 2 35 30 35 23 0 30 4 30 20 0 17 -7 20 -45 20
l-45 0 0 -40z"/>
<path d="M4004 1497 c-3 -8 -4 -47 -2 -88 2 -58 6 -74 18 -74 12 0 16 15 18
68 3 59 5 67 22 67 18 0 20 -7 20 -75 l0 -75 85 0 c69 0 85 3 85 15 0 12 -14
15 -70 15 l-70 0 0 80 0 80 -50 0 c-33 0 -52 -5 -56 -13z"/>
<path d="M10410 1490 c0 -18 7 -20 75 -20 68 0 75 2 75 20 0 18 -7 20 -75 20
-68 0 -75 -2 -75 -20z"/>
<path d="M11380 1455 l0 -55 35 0 35 0 0 -115 0 -115 40 0 c36 0 40 -2 40 -25
0 -24 -2 -25 -75 -25 l-75 0 0 -85 c0 -69 3 -85 15 -85 12 0 15 14 15 70 l0
70 75 0 75 0 0 55 0 55 -35 0 -35 0 0 115 0 115 -40 0 c-33 0 -40 3 -40 20 0
16 7 20 30 20 23 0 30 4 30 20 0 17 -7 20 -45 20 l-45 0 0 -55z"/>
<path d="M12300 1455 l0 -55 90 0 90 0 0 45 c0 33 -4 45 -15 45 -10 0 -15 -10
-15 -30 l0 -30 -60 0 c-53 0 -60 2 -60 20 0 16 7 20 30 20 23 0 30 4 30 20 0
17 -7 20 -45 20 l-45 0 0 -55z"/>
<path d="M7467 1484 c-4 -4 -7 -36 -7 -71 l0 -63 -75 0 -75 0 0 -90 0 -90 75
0 c73 0 75 -1 75 -25 0 -22 -4 -25 -35 -25 -34 0 -35 -1 -35 -41 0 -36 -2 -40
-22 -37 -18 2 -24 11 -26 36 -5 49 -26 34 -30 -21 l-3 -47 55 0 56 0 0 40 0
40 41 0 40 0 -3 53 -3 52 -77 3 -78 3 0 59 0 60 80 0 81 0 -3 82 c-3 75 -12
100 -31 82z"/>
<path d="M110 1425 l0 -55 75 0 75 0 0 -75 0 -75 40 0 40 0 0 -41 0 -40 53 3
52 3 3 38 c3 34 6 37 33 37 20 0 29 5 29 16 0 12 -10 14 -47 12 -48 -3 -48 -3
-51 -40 -3 -30 -7 -38 -23 -38 -16 0 -19 7 -19 40 l0 40 -40 0 -40 0 0 75 0
75 -75 0 c-73 0 -75 1 -75 25 l0 25 105 0 c87 0 105 3 105 15 0 13 -20 15
-120 15 l-120 0 0 -55z"/>
<path d="M1260 1425 l0 -55 40 0 c33 0 40 -3 40 -20 0 -17 -7 -20 -40 -20
l-40 0 0 -55 0 -55 130 0 130 0 0 90 0 90 -55 0 -55 0 0 -45 c0 -33 4 -45 15
-45 10 0 15 10 15 30 0 25 4 30 25 30 24 0 25 -3 25 -60 l0 -60 -100 0 c-92 0
-100 1 -100 19 0 16 8 20 38 23 l37 3 3 53 3 52 -40 0 c-37 0 -41 2 -41 25 0
24 2 25 70 25 56 0 70 3 70 15 0 12 -16 15 -85 15 l-85 0 0 -55z"/>
<path d="M5430 1390 l0 -40 -40 0 -40 0 0 -40 c0 -39 -1 -40 -35 -40 l-35 0 0
-50 0 -50 35 0 35 0 0 -80 0 -80 130 0 130 0 0 95 0 95 -75 0 c-68 0 -75 2
-75 19 0 16 8 20 38 23 35 3 37 5 40 41 2 28 8 37 22 37 14 0 20 -9 22 -37 3
-36 5 -38 41 -41 l37 -3 0 -115 0 -114 75 0 75 0 0 -75 0 -75 115 0 115 0 0
-40 0 -40 80 0 80 0 0 -60 0 -60 -40 0 -40 0 0 -40 c0 -33 -3 -40 -20 -40 -18
0 -20 7 -20 65 l0 65 31 0 c20 0 29 4 27 13 -3 7 -22 12 -49 12 l-44 0 -3 -92
-3 -93 56 0 55 0 0 40 0 40 40 0 40 0 0 90 0 90 -75 0 -75 0 0 40 0 40 -120 0
-120 0 0 75 0 75 -75 0 -75 0 0 114 0 115 -37 3 c-36 3 -38 5 -41 41 l-3 37
-49 0 -49 0 -3 -37 c-3 -36 -5 -38 -40 -41 l-38 -3 0 -50 0 -49 75 0 75 0 0
-65 0 -66 -97 3 -98 3 -3 78 -3 77 -34 0 c-28 0 -35 4 -35 20 0 16 7 20 35 20
34 0 35 1 35 40 l0 40 40 0 40 0 0 40 c0 38 2 40 30 40 20 0 30 5 30 15 0 11
-12 15 -45 15 l-45 0 0 -40z"/>
<path d="M6520 1415 c0 -11 11 -15 40 -15 29 0 40 4 40 15 0 11 -11 15 -40 15
-29 0 -40 -4 -40 -15z"/>
<path d="M11627 1423 c-15 -14 -6 -23 23 -23 25 0 30 -4 30 -25 0 -21 -5 -25
-30 -25 -20 0 -30 -5 -30 -15 0 -11 12 -15 50 -15 l50 0 0 55 0 55 -43 0 c-24
0 -47 -3 -50 -7z"/>
<path d="M2522 1373 c2 -26 8 -38 18 -38 10 0 16 12 18 38 3 32 0 37 -18 37
-18 0 -21 -5 -18 -37z"/>
<path d="M9070 1369 c0 -52 24 -48 28 4 2 28 -1 37 -12 37 -12 0 -16 -11 -16
-41z"/>
<path d="M10240 1380 l0 -30 -70 0 c-56 0 -70 -3 -70 -15 0 -12 16 -15 85 -15
l85 0 0 45 c0 33 -4 45 -15 45 -10 0 -15 -10 -15 -30z"/>
<path d="M340 1345 l0 -55 45 0 c38 0 45 3 45 20 0 16 -7 20 -30 20 -23 0 -30
4 -30 20 0 16 7 20 30 20 20 0 30 5 30 15 0 11 -12 15 -45 15 l-45 0 0 -55z"/>
<path d="M1570 1310 c0 -61 3 -81 13 -77 8 2 12 27 12 77 0 50 -4 75 -12 78
-10 3 -13 -17 -13 -78z"/>
<path d="M2870 1335 c0 -10 10 -15 30 -15 28 0 30 -2 30 -40 l0 -40 45 0 c33
0 45 4 45 15 0 10 -10 15 -30 15 -28 0 -30 2 -30 40 l0 40 -45 0 c-33 0 -45
-4 -45 -15z"/>
<path d="M4560 1335 c0 -12 14 -15 70 -15 l70 0 0 -71 c0 -52 3 -70 13 -67 8
3 13 32 15 86 l3 82 -86 0 c-69 0 -85 -3 -85 -15z"/>
<path d="M5670 1335 c0 -12 16 -15 80 -15 64 0 80 3 80 15 0 12 -16 15 -80 15
-64 0 -80 -3 -80 -15z"/>
<path d="M6500 1305 c0 -38 3 -45 20 -45 16 0 20 7 20 30 0 27 3 30 30 30 20
0 30 5 30 15 0 11 -12 15 -50 15 l-50 0 0 -45z"/>
<path d="M9640 1335 c0 -10 10 -15 30 -15 27 0 30 -3 30 -30 0 -20 5 -30 15
-30 11 0 15 12 15 45 l0 45 -45 0 c-33 0 -45 -4 -45 -15z"/>
<path d="M10470 1310 c0 -38 -2 -40 -30 -40 -20 0 -30 -5 -30 -15 0 -11 12
-15 45 -15 l45 0 0 40 0 40 60 0 c57 0 60 -1 60 -25 0 -21 -5 -25 -31 -25 -20
0 -29 -4 -26 -12 2 -8 21 -13 48 -13 l44 0 3 53 3 52 -95 0 -96 0 0 -40z"/>
<path d="M11840 1275 c0 -73 -1 -75 -25 -75 -22 0 -25 4 -25 35 l0 35 -56 0
-55 0 3 -42 c4 -50 31 -61 36 -15 2 19 9 27 23 27 15 0 19 -7 19 -35 l0 -35
55 0 55 0 0 75 0 75 30 0 c20 0 30 5 30 15 0 11 -12 15 -45 15 l-45 0 0 -75z"/>
<path d="M12220 1275 l0 -75 -75 0 -75 0 0 -55 0 -55 41 0 c36 0 40 -2 37 -22
-2 -18 -11 -24 -36 -26 -49 -5 -34 -27 19 -27 l44 0 3 53 3 52 -40 0 c-37 0
-41 2 -41 25 0 24 2 25 75 25 l75 0 0 75 0 75 66 0 c62 0 65 -1 62 -22 -2 -19
-10 -24 -40 -26 l-38 -3 0 -49 0 -49 38 -3 c30 -2 38 -7 40 -25 3 -21 -1 -23
-37 -23 l-41 0 0 -75 0 -75 -40 0 -40 0 0 -80 c0 -73 -2 -80 -20 -80 -17 0
-20 7 -20 40 l0 40 -40 0 c-38 0 -40 2 -40 30 0 20 -5 30 -15 30 -11 0 -15
-12 -15 -45 l0 -45 40 0 40 0 0 -40 0 -40 50 0 49 0 3 78 3 77 38 3 37 3 0 75
0 74 40 0 40 0 0 55 0 55 -40 0 c-33 0 -40 3 -40 19 0 16 8 20 38 23 l37 3 3
53 3 52 -95 0 -96 0 0 -75z"/>
<path d="M3627 1333 c-4 -3 -7 -35 -7 -69 l0 -63 -37 -3 -38 -3 -3 -77 -3 -78
-34 0 -35 0 0 -75 c0 -73 -1 -75 -25 -75 -24 0 -25 2 -25 75 l0 75 -35 0 -35
0 0 65 c0 58 2 65 20 65 17 0 20 -7 20 -40 l0 -40 45 0 c33 0 45 4 45 15 0 10
-10 15 -30 15 -28 0 -30 2 -30 41 l0 40 -52 -3 -53 -3 -3 -92 -3 -93 41 0 40
0 0 -75 0 -75 55 0 55 0 0 74 0 75 38 3 37 3 3 78 3 77 34 0 35 0 0 85 c0 78
-5 96 -23 78z"/>
<path d="M7087 1333 c-4 -3 -7 -39 -7 -80 0 -58 3 -73 15 -73 12 0 15 16 15
80 0 73 -6 91 -23 73z"/>
<path d="M7235 1328 c-3 -8 -4 -95 -3 -193 3 -152 5 -180 18 -180 13 0 15 28
15 189 0 143 -3 190 -12 193 -7 3 -15 -1 -18 -9z"/>
<path d="M12457 1333 c-4 -3 -7 -21 -7 -40 0 -23 5 -33 15 -33 11 0 15 11 15
40 0 38 -8 49 -23 33z"/>
<path d="M50 1310 c0 -18 6 -20 65 -20 58 0 65 -2 65 -20 0 -18 -7 -20 -75
-20 l-75 0 0 -55 0 -55 85 0 c69 0 85 3 85 15 0 12 -14 15 -70 15 -68 0 -70 1
-70 25 0 25 1 25 81 25 l80 0 -3 53 -3 52 -82 3 c-78 3 -83 2 -83 -18z"/>
<path d="M3410 1255 c0 -12 15 -15 75 -15 60 0 75 3 75 15 0 12 -15 15 -75 15
-60 0 -75 -3 -75 -15z"/>
<path d="M3850 1225 c0 -33 4 -45 15 -45 10 0 15 10 15 30 l0 30 70 0 c56 0
70 3 70 15 0 12 -16 15 -85 15 l-85 0 0 -45z"/>
<path d="M4080 1236 c0 -33 -2 -35 -37 -38 l-38 -3 -3 -77 -3 -78 -74 0 -75 0
0 -50 0 -50 130 0 130 0 0 86 c0 64 -3 85 -12 82 -8 -3 -14 -29 -16 -71 l-3
-67 -99 0 c-93 0 -100 1 -100 20 0 17 8 19 78 22 l77 3 3 78 3 77 34 0 c33 0
35 2 35 35 l0 35 60 0 60 0 0 -100 c0 -93 -1 -100 -20 -100 -18 0 -20 7 -20
70 0 56 -3 70 -15 70 -12 0 -15 -16 -15 -86 l0 -85 53 3 52 3 3 128 3 127 -96
0 -95 0 0 -34z"/>
<path d="M6060 1255 c0 -12 15 -15 75 -15 60 0 75 3 75 15 0 12 -15 15 -75 15
-60 0 -75 -3 -75 -15z"/>
<path d="M6270 1235 c0 -33 -2 -35 -35 -35 l-35 0 0 -96 0 -95 53 3 52 3 3 38
c3 29 7 37 23 37 16 0 19 -7 19 -40 l0 -40 45 0 c33 0 45 4 45 15 0 10 -10 15
-30 15 -28 0 -30 2 -30 40 l0 40 -55 0 -55 0 0 -40 c0 -33 -3 -40 -20 -40 -18
0 -20 7 -20 65 l0 65 40 0 c39 0 40 1 40 35 0 28 4 35 20 35 16 0 20 -7 20
-30 0 -20 5 -30 15 -30 11 0 15 12 15 45 l0 45 -55 0 -55 0 0 -35z"/>
<path d="M7402 1258 c3 -7 21 -14 41 -16 28 -2 37 1 37 12 0 12 -11 16 -41 16
-28 0 -39 -4 -37 -12z"/>
<path d="M3700 1220 c0 -29 4 -40 15 -40 11 0 15 11 15 40 0 29 -4 40 -15 40
-11 0 -15 -11 -15 -40z"/>
<path d="M6850 1216 c0 -44 0 -45 38 -48 30 -2 38 -7 40 -25 3 -21 -1 -23 -37
-23 l-41 0 0 -55 0 -56 93 3 92 3 0 45 c0 33 -4 45 -15 45 -10 0 -16 -12 -18
-32 l-3 -33 -60 0 c-56 0 -59 1 -59 25 0 23 4 25 40 25 l40 0 0 55 0 55 -40 0
c-38 0 -40 2 -40 30 0 20 -5 30 -15 30 -11 0 -15 -12 -15 -44z"/>
<path d="M2850 1071 l0 -131 95 0 95 0 0 50 0 50 -51 0 c-57 0 -66 -23 -11
-28 24 -2 32 -8 32 -23 0 -17 -7 -19 -65 -19 l-66 0 3 98 3 97 33 3 c49 5 34
26 -21 30 l-47 3 0 -130z"/>
<path d="M3160 1120 l0 -80 -40 0 -40 0 0 -75 0 -75 -75 0 -75 0 0 -55 0 -55
40 0 40 0 0 -60 0 -60 -40 0 -40 0 0 -45 c0 -33 4 -45 15 -45 10 0 15 10 15
30 0 28 2 30 40 30 l40 0 0 90 0 90 -40 0 c-36 0 -40 3 -40 25 0 24 2 25 75
25 l75 0 0 75 0 75 40 0 40 0 0 81 c0 78 1 80 23 77 21 -3 22 -8 25 -100 l3
-98 -41 0 -40 0 0 -55 0 -55 75 0 c73 0 75 -1 75 -25 0 -22 -4 -25 -35 -25
l-35 0 0 -131 0 -130 53 3 52 3 3 78 c3 69 5 77 22 77 19 0 20 -8 20 -215 l0
-215 -267 -2 -268 -3 -3 -52 -3 -53 40 0 41 0 0 -60 c0 -57 -1 -60 -25 -60
-21 0 -25 5 -25 31 0 20 -4 29 -12 26 -8 -2 -13 -21 -13 -48 l0 -44 53 -3 52
-3 0 95 0 96 -40 0 c-33 0 -40 3 -40 20 0 20 7 20 270 20 l270 0 0 251 0 250
-52 -3 -53 -3 -3 -77 c-3 -70 -5 -78 -22 -78 -19 0 -20 7 -20 99 l0 100 38 3
37 3 3 53 3 52 -80 0 c-80 0 -81 0 -81 25 0 23 4 25 40 25 l40 0 0 130 0 130
-55 0 -55 0 0 -80z"/>
<path d="M9870 1185 c0 -11 11 -15 40 -15 29 0 40 4 40 15 0 11 -11 15 -40 15
-29 0 -40 -4 -40 -15z"/>
<path d="M3930 1150 l0 -30 -155 0 -155 0 0 -90 0 -90 55 0 55 0 0 35 c0 32 2
35 30 35 20 0 30 5 30 15 0 11 -12 15 -45 15 -45 0 -45 0 -45 -35 0 -31 -3
-35 -25 -35 -24 0 -25 3 -25 60 l0 60 155 0 155 0 0 45 c0 33 -4 45 -15 45
-10 0 -15 -10 -15 -30z"/>
<path d="M4312 1143 c4 -52 28 -56 28 -4 0 30 -4 41 -16 41 -11 0 -14 -9 -12
-37z"/>
<path d="M4540 1150 c0 -27 -3 -30 -30 -30 -20 0 -30 -5 -30 -15 0 -11 12 -15
45 -15 l45 0 0 45 c0 33 -4 45 -15 45 -10 0 -15 -10 -15 -30z"/>
<path d="M490 1136 c0 -33 -2 -35 -37 -38 l-38 -3 -3 -52 -3 -53 40 0 c37 0
41 -2 41 -25 0 -22 -4 -25 -40 -25 l-40 0 0 -75 c0 -68 -2 -75 -19 -75 -16 0
-20 8 -23 38 l-3 37 -72 3 -73 3 0 104 c0 99 -1 105 -20 105 -20 0 -20 -5 -18
-122 l3 -123 78 -3 77 -3 0 -34 0 -35 55 0 55 0 0 75 0 75 35 0 35 0 0 55 0
55 -35 0 c-28 0 -35 4 -35 20 0 16 7 20 35 20 34 0 35 1 35 40 0 38 2 40 30
40 20 0 30 5 30 15 0 11 -12 15 -45 15 -45 0 -45 0 -45 -34z"/>
<path d="M810 1155 c0 -10 10 -15 29 -15 27 0 30 -3 33 -37 3 -36 5 -38 41
-41 35 -3 37 -5 37 -38 l0 -34 55 0 55 0 0 35 0 35 60 0 60 0 0 -75 0 -75 55
0 55 0 0 85 c0 69 -3 85 -15 85 -12 0 -15 -14 -15 -70 0 -68 -1 -70 -25 -70
-25 0 -25 1 -25 80 l0 80 -90 0 -90 0 0 -40 c0 -36 -2 -40 -25 -40 -22 0 -25
4 -25 40 0 39 -1 40 -35 40 -33 0 -35 2 -35 35 l0 35 -50 0 c-38 0 -50 -4 -50
-15z"/>
<path d="M260 1080 c0 -64 3 -80 15 -80 12 0 15 16 15 80 0 64 -3 80 -15 80
-12 0 -15 -16 -15 -80z"/>
<path d="M724 1146 c-3 -8 -4 -29 -2 -48 3 -31 5 -33 46 -36 37 -3 42 -1 42
17 0 17 -6 21 -30 21 -27 0 -30 3 -30 30 0 31 -16 41 -26 16z"/>
<path d="M5440 1105 c0 -11 11 -15 40 -15 29 0 40 4 40 15 0 11 -11 15 -40 15
-29 0 -40 -4 -40 -15z"/>
<path d="M6440 1105 c0 -11 11 -15 40 -15 29 0 40 4 40 15 0 11 -11 15 -40 15
-29 0 -40 -4 -40 -15z"/>
<path d="M11220 1075 c0 -38 3 -45 20 -45 16 0 20 7 20 30 0 23 4 30 20 30 19
0 20 -7 20 -115 l0 -115 95 0 95 0 0 86 c0 76 -2 85 -17 82 -15 -3 -19 -16
-21 -71 l-3 -67 -59 0 -60 0 0 115 0 115 -55 0 -55 0 0 -45z"/>
<path d="M5280 1026 l0 -86 150 0 150 0 0 -100 c0 -93 -1 -100 -20 -100 -16 0
-20 7 -20 35 l0 35 -51 0 c-57 0 -66 -23 -11 -28 29 -3 32 -6 32 -38 l0 -34
50 0 50 0 0 130 0 130 -150 0 -149 0 -3 67 c-2 42 -8 68 -15 71 -10 3 -13 -18
-13 -82z"/>
<path d="M11840 1070 c0 -29 4 -40 15 -40 11 0 15 11 15 40 0 29 -4 40 -15 40
-11 0 -15 -11 -15 -40z"/>
<path d="M12227 1103 c-4 -3 -7 -21 -7 -40 0 -23 5 -33 15 -33 11 0 15 11 15
40 0 38 -8 49 -23 33z"/>
<path d="M110 1005 c0 -60 3 -75 15 -75 12 0 15 15 15 75 0 60 -3 75 -15 75
-12 0 -15 -15 -15 -75z"/>
<path d="M340 1010 l0 -70 -30 0 c-20 0 -30 -5 -30 -15 0 -11 12 -15 45 -15
l45 0 0 85 c0 69 -3 85 -15 85 -12 0 -15 -14 -15 -70z"/>
<path d="M5060 1025 c0 -10 10 -15 30 -15 l30 0 0 -60 c0 -53 -2 -60 -20 -60
-16 0 -20 7 -20 30 0 23 -4 30 -20 30 -17 0 -20 -7 -20 -45 l0 -45 55 0 55 0
0 90 0 90 -45 0 c-33 0 -45 -4 -45 -15z"/>
<path d="M10010 991 l0 -50 38 -3 37 -3 3 -112 3 -113 49 0 50 0 0 35 c0 34 1
35 40 35 l40 0 0 55 0 55 -40 0 -40 0 0 60 c0 57 1 60 25 60 22 0 25 -4 25
-35 l0 -35 55 0 55 0 0 35 c0 28 4 35 20 35 16 0 20 -7 20 -35 l0 -35 95 0 95
0 0 35 c0 28 4 35 20 35 19 0 20 -7 20 -135 l0 -134 -112 -3 -113 -3 -3 -37
c-3 -36 -5 -38 -38 -38 -33 0 -34 -1 -34 -40 l0 -41 -62 3 c-57 3 -63 5 -66
26 -3 20 1 22 37 22 l41 0 0 40 0 40 40 0 40 0 0 45 c0 33 -4 45 -15 45 -10 0
-15 -10 -15 -30 0 -28 -2 -30 -40 -30 l-40 0 0 -40 0 -40 -40 0 -40 0 0 -55 0
-55 95 0 95 0 0 40 0 40 40 0 40 0 0 40 0 40 115 0 115 0 0 165 0 165 -55 0
-55 0 0 -35 0 -35 -60 0 -60 0 0 35 0 35 -55 0 -55 0 0 -35 c0 -31 -3 -35 -25
-35 -22 0 -25 4 -25 35 l0 35 -55 0 -55 0 0 -90 0 -90 40 0 c36 0 40 -2 40
-25 0 -22 -4 -25 -40 -25 -39 0 -40 -1 -40 -35 0 -28 -4 -35 -20 -35 -19 0
-20 7 -20 115 l0 115 -40 0 c-33 0 -40 3 -40 20 0 16 7 20 30 20 20 0 30 5 30
15 0 11 -12 15 -45 15 l-45 0 0 -49z"/>
<path d="M4540 990 c0 -29 4 -40 15 -40 11 0 15 11 15 40 0 29 -4 40 -15 40
-11 0 -15 -11 -15 -40z"/>
<path d="M5200 950 c0 -64 3 -80 15 -80 12 0 15 16 15 80 0 64 -3 80 -15 80
-12 0 -15 -16 -15 -80z"/>
<path d="M6507 1024 c-4 -4 -7 -54 -7 -111 0 -96 -1 -103 -20 -103 -18 0 -20
7 -20 70 0 56 -3 70 -15 70 -12 0 -15 -16 -15 -86 l0 -85 53 3 52 3 0 119 c0
111 -7 141 -28 120z"/>
<path d="M6580 990 c0 -29 4 -40 15 -40 11 0 15 11 15 40 0 29 -4 40 -15 40
-11 0 -15 -11 -15 -40z"/>
<path d="M10700 845 l0 -185 -40 0 -40 0 0 -40 0 -40 -60 0 c-57 0 -60 1 -60
25 0 21 5 25 30 25 20 0 30 5 30 15 0 11 -12 15 -45 15 l-45 0 0 -55 0 -56 93
3 92 3 3 38 c3 35 5 37 38 37 l34 0 0 200 c0 171 -2 200 -15 200 -13 0 -15
-27 -15 -185z"/>
<path d="M644 1007 c-3 -8 -4 -49 -2 -93 l3 -79 130 0 130 0 0 45 c0 33 -4 45
-15 45 -9 0 -16 -11 -18 -27 l-3 -28 -95 0 -94 0 0 60 c0 53 2 60 20 60 17 0
20 -7 20 -40 l0 -40 55 0 55 0 0 40 c0 38 2 40 30 40 20 0 30 5 30 15 0 11
-12 15 -45 15 l-45 0 0 -40 c0 -36 -2 -40 -25 -40 -22 0 -25 4 -25 40 l0 40
-50 0 c-33 0 -52 -5 -56 -13z"/>
<path d="M1340 810 l0 -210 90 0 90 0 0 95 0 95 -56 0 -55 0 3 -47 c4 -55 25
-70 30 -21 2 25 8 34 26 36 21 3 22 0 22 -62 l0 -66 -60 0 -60 0 0 180 c0 173
1 180 20 180 16 0 20 -7 20 -30 0 -20 5 -30 15 -30 11 0 15 12 15 45 l0 45
-50 0 -50 0 0 -210z"/>
<path d="M1110 970 l0 -30 -81 0 -80 0 3 -52 3 -53 153 -3 c144 -2 152 -4 152
-22 0 -17 -7 -20 -40 -20 l-40 0 0 -55 0 -55 40 0 40 0 0 -100 0 -100 -60 0
c-57 0 -60 1 -60 25 0 22 4 25 35 25 l35 0 0 50 0 50 -35 0 -35 0 0 80 0 81
-132 -3 -133 -3 -3 -52 -3 -53 40 0 c37 0 41 -2 41 -25 0 -21 -5 -25 -30 -25
-20 0 -30 -5 -30 -15 0 -11 12 -15 45 -15 l45 0 0 55 0 55 -35 0 c-31 0 -35 3
-35 25 l0 26 98 -3 97 -3 3 -77 3 -78 34 0 c28 0 35 -4 35 -20 0 -16 -7 -20
-35 -20 l-35 0 0 -55 0 -55 90 0 90 0 0 130 0 130 -41 0 c-36 0 -40 2 -37 23
2 18 10 23 41 25 l37 3 0 55 0 54 -155 0 c-148 0 -155 1 -155 20 0 18 7 20 80
20 l80 0 0 45 c0 33 -4 45 -15 45 -10 0 -15 -10 -15 -30z"/>
<path d="M4177 963 c-15 -14 -6 -23 23 -23 25 0 30 -4 30 -25 0 -22 -4 -25
-35 -25 l-35 0 0 -55 0 -55 35 0 c28 0 35 -4 35 -20 0 -18 -7 -20 -60 -20
l-60 0 0 35 0 34 -112 3 -113 3 -3 38 -3 37 -90 0 -89 0 0 -40 0 -40 -80 0
-80 0 0 -90 0 -90 135 0 135 0 0 40 0 40 65 0 c52 0 65 3 65 15 0 13 -14 15
-82 13 l-83 -3 -3 -37 -3 -38 -95 0 -94 0 0 60 0 60 75 0 75 0 0 40 0 40 60 0
60 0 0 -40 0 -40 115 0 115 0 0 -35 0 -35 95 0 95 0 0 50 0 50 -40 0 c-36 0
-40 3 -40 25 0 23 4 25 40 25 l40 0 0 55 0 55 -43 0 c-24 0 -47 -3 -50 -7z"/>
<path d="M5660 875 l0 -95 45 0 c33 0 45 4 45 15 0 10 -10 15 -30 15 l-30 0 0
66 c0 62 1 65 23 62 17 -2 23 -11 25 -36 5 -49 26 -34 30 21 l3 47 -55 0 -56
0 0 -95z"/>
<path d="M6200 915 l0 -55 45 0 c33 0 45 4 45 15 0 10 -10 15 -30 15 -25 0
-30 4 -30 25 0 24 3 25 60 25 l60 0 0 -65 0 -65 -40 0 -40 0 0 -50 0 -50 51 0
c36 0 49 4 47 13 -3 6 -17 13 -31 15 -19 2 -27 9 -27 23 0 15 7 19 35 19 l35
0 0 95 0 95 -90 0 -90 0 0 -55z"/>
<path d="M6850 920 c0 -38 4 -50 15 -50 10 0 15 11 15 35 l0 35 60 0 c57 0 60
-1 60 -25 0 -21 -5 -25 -30 -25 -20 0 -30 -5 -30 -15 0 -11 12 -15 51 -15 l50
0 -3 53 -3 52 -92 3 -93 3 0 -51z"/>
<path d="M2370 920 c0 -28 -2 -30 -40 -30 l-40 0 0 -40 c0 -33 -3 -40 -19 -40
-15 0 -21 8 -23 32 -5 55 -28 46 -28 -12 l0 -51 53 3 52 3 3 38 c3 35 5 37 38
37 34 0 34 0 34 45 0 33 -4 45 -15 45 -10 0 -15 -10 -15 -30z"/>
<path d="M3540 905 l0 -45 50 0 c38 0 50 4 50 15 0 10 -10 15 -30 15 -27 0
-30 3 -30 30 0 23 -4 30 -20 30 -17 0 -20 -7 -20 -45z"/>
<path d="M4700 909 c0 -52 24 -48 28 4 2 28 -1 37 -12 37 -12 0 -16 -11 -16
-41z"/>
<path d="M7082 913 c4 -52 28 -56 28 -4 0 30 -4 41 -16 41 -11 0 -14 -9 -12
-37z"/>
<path d="M8910 920 c0 -28 -3 -30 -35 -30 -34 0 -35 -1 -35 -40 0 -36 -2 -40
-25 -40 -22 0 -25 4 -25 35 0 24 -5 35 -15 35 -11 0 -15 -12 -15 -50 l0 -50
55 0 55 0 0 40 0 40 40 0 40 0 0 45 c0 38 -3 45 -20 45 -16 0 -20 -7 -20 -30z"/>
<path d="M1490 900 c0 -27 -3 -30 -30 -30 -23 0 -30 -4 -30 -20 0 -17 7 -20
45 -20 l45 0 0 50 c0 38 -4 50 -15 50 -10 0 -15 -10 -15 -30z"/>
<path d="M1570 806 l0 -126 50 0 50 0 0 45 c0 33 -4 45 -15 45 -10 0 -15 -10
-15 -30 0 -23 -4 -30 -20 -30 -18 0 -20 8 -22 107 -2 74 -7 108 -15 111 -10 3
-13 -26 -13 -122z"/>
<path d="M3940 875 c0 -12 16 -15 80 -15 64 0 80 3 80 15 0 12 -16 15 -80 15
-64 0 -80 -3 -80 -15z"/>
<path d="M5278 853 c-3 -36 -5 -38 -40 -41 l-38 -3 0 -90 0 -89 41 0 c36 0 40
-2 37 -22 -2 -19 -10 -24 -40 -26 l-38 -3 0 -75 c0 -72 -1 -74 -25 -74 -23 0
-25 4 -25 41 l0 40 -52 -3 -53 -3 0 -130 0 -130 53 -3 52 -3 0 40 0 41 100 0
100 0 0 -75 0 -75 40 0 40 0 0 -40 0 -40 115 0 c108 0 115 -1 115 -20 0 -19
-7 -20 -140 -20 l-140 0 0 35 0 35 -50 0 -50 0 0 -35 0 -35 -100 0 -100 0 0
60 0 60 75 0 75 0 0 35 c0 31 3 35 25 35 21 0 25 -5 25 -31 0 -20 4 -29 13
-26 7 2 12 21 12 48 l0 44 -52 3 -53 3 0 -40 0 -40 -77 -3 -78 -3 0 -90 0 -90
130 0 130 0 3 38 c5 54 39 54 44 0 l3 -38 168 -3 167 -2 0 55 0 55 -115 0
-115 0 0 40 0 40 -40 0 -40 0 0 75 0 75 -130 0 -130 0 0 -35 c0 -28 -4 -35
-20 -35 -19 0 -20 7 -20 95 0 88 1 95 20 95 16 0 20 -7 20 -35 l0 -35 55 0 55
0 0 74 0 75 38 3 37 3 3 53 3 52 -40 0 -41 0 0 59 0 60 38 3 c35 3 37 5 40 41
3 29 7 37 23 37 17 0 19 -7 19 -75 l0 -75 40 0 40 0 0 -40 0 -40 40 0 40 0 0
-40 0 -40 50 0 50 0 0 40 c0 36 3 40 25 40 23 0 25 -4 25 -40 l0 -40 130 0
130 0 0 55 0 55 -85 0 c-69 0 -85 -3 -85 -15 0 -12 14 -15 70 -15 68 0 70 -1
70 -25 l0 -25 -100 0 -100 0 0 40 0 40 -55 0 -55 0 0 -40 c0 -33 -3 -40 -20
-40 -17 0 -20 7 -20 40 l0 40 -40 0 -40 0 0 40 0 40 -40 0 -40 0 0 75 0 75
-49 0 -50 0 -3 -37z"/>
<path d="M5440 875 c0 -11 11 -15 40 -15 29 0 40 4 40 15 0 11 -11 15 -40 15
-29 0 -40 -4 -40 -15z"/>
<path d="M10330 875 c0 -10 10 -15 30 -15 28 0 30 -2 30 -40 l0 -40 55 0 55 0
0 40 c0 36 3 40 25 40 21 0 25 -5 25 -30 0 -20 5 -30 15 -30 11 0 15 12 15 45
l0 45 -55 0 -55 0 0 -40 c0 -33 -3 -40 -20 -40 -17 0 -20 7 -20 40 l0 40 -50
0 c-38 0 -50 -4 -50 -15z"/>
<path d="M11930 875 c0 -11 11 -15 40 -15 29 0 40 4 40 15 0 11 -11 15 -40 15
-29 0 -40 -4 -40 -15z"/>
<path d="M2857 873 c-4 -3 -7 -21 -7 -40 0 -23 5 -33 15 -33 11 0 15 11 15 40
0 38 -8 49 -23 33z"/>
<path d="M10010 811 l0 -70 -37 -3 -38 -3 -3 -52 -3 -53 40 0 c39 0 41 -2 41
-30 0 -20 5 -30 15 -30 11 0 15 12 15 45 l0 45 -41 0 c-36 0 -40 2 -37 23 2
18 10 23 41 25 l37 3 0 85 c0 68 -3 84 -15 84 -12 0 -15 -14 -15 -69z"/>
<path d="M490 765 l0 -85 55 0 55 0 0 40 c0 33 3 40 19 40 15 0 21 -8 23 -32
2 -21 8 -33 18 -33 11 0 16 13 18 48 l3 47 -55 0 -56 0 0 -40 c0 -36 -2 -40
-25 -40 -24 0 -25 2 -25 70 0 56 -3 70 -15 70 -12 0 -15 -16 -15 -85z"/>
<path d="M1910 680 l0 -130 40 0 40 0 0 -40 c0 -39 1 -40 35 -40 33 0 35 -2
35 -35 l0 -35 55 0 55 0 0 35 c0 31 3 35 25 35 24 0 25 -2 25 -75 l0 -75 35 0
c28 0 35 -4 35 -20 0 -18 -7 -20 -60 -20 l-60 0 0 35 0 35 -55 0 -55 0 0 -35
c0 -28 -4 -35 -20 -35 -18 0 -20 7 -20 75 l0 75 -40 0 c-38 0 -40 2 -40 30 0
20 -5 30 -15 30 -11 0 -15 -12 -15 -45 l0 -45 40 0 40 0 0 -81 0 -80 53 3 52
3 3 37 c2 29 8 38 22 38 14 0 20 -9 22 -37 l3 -38 90 0 90 0 3 53 3 52 -40 0
-41 0 0 80 0 80 -55 0 -55 0 0 -40 c0 -33 -3 -40 -19 -40 -16 0 -20 8 -23 38
-3 35 -5 37 -40 40 -36 3 -38 5 -38 38 0 33 -1 34 -40 34 l-40 0 0 100 0 100
25 0 c24 0 25 -2 25 -75 l0 -75 130 0 130 0 0 55 0 55 -40 0 c-39 0 -40 1 -40
35 0 35 0 35 -45 35 -33 0 -45 -4 -45 -15 0 -10 10 -15 30 -15 28 0 30 -3 30
-34 0 -33 2 -35 38 -38 30 -2 38 -7 40 -25 3 -23 1 -23 -97 -23 l-101 0 0 75
0 75 -55 0 -55 0 0 -130z"/>
<path d="M3080 765 c0 -33 4 -45 15 -45 10 0 15 10 15 30 0 25 4 30 25 30 24
0 25 -3 25 -60 l0 -60 -30 0 c-20 0 -30 -5 -30 -15 0 -11 12 -15 45 -15 l45 0
0 90 0 90 -55 0 -55 0 0 -45z"/>
<path d="M4330 795 c0 -12 18 -15 105 -15 l105 0 0 -35 0 -35 55 0 55 0 0 35
c0 31 3 35 25 35 21 0 25 -5 25 -30 0 -20 5 -30 15 -30 11 0 15 12 15 45 l0
45 -55 0 -55 0 0 -35 c0 -31 -3 -35 -25 -35 -22 0 -25 4 -25 35 l0 35 -120 0
c-100 0 -120 -2 -120 -15z"/>
<path d="M5060 795 c0 -10 10 -15 30 -15 23 0 30 -4 30 -20 0 -16 -7 -20 -30
-20 -20 0 -30 -5 -30 -15 0 -11 12 -15 45 -15 l45 0 0 50 0 50 -45 0 c-33 0
-45 -4 -45 -15z"/>
<path d="M5830 795 c0 -10 10 -15 30 -15 28 0 30 -3 30 -34 0 -33 2 -35 38
-38 34 -3 37 -6 40 -36 5 -49 27 -34 27 19 0 44 0 44 -37 47 -36 3 -38 5 -38
38 0 34 0 34 -45 34 -33 0 -45 -4 -45 -15z"/>
<path d="M8450 680 l0 -130 40 0 40 0 0 -40 0 -40 40 0 c39 0 40 -1 40 -35 l0
-35 50 0 50 0 0 35 c0 31 3 35 25 35 24 0 25 -2 25 -75 l0 -75 40 0 c33 0 40
-3 40 -20 0 -18 -7 -20 -65 -20 l-65 0 0 35 0 35 -50 0 -50 0 0 -35 c0 -31 -3
-35 -25 -35 -24 0 -25 2 -25 75 l0 75 -40 0 c-38 0 -40 2 -40 30 0 20 -5 30
-15 30 -11 0 -15 -12 -15 -45 l0 -45 40 0 40 0 0 -81 0 -80 53 3 52 3 3 37 c2
29 8 38 22 38 14 0 20 -9 22 -37 l3 -38 90 0 90 0 3 53 3 52 -40 0 -41 0 0 81
0 80 -52 -3 -53 -3 -3 -37 c-2 -29 -8 -38 -22 -38 -14 0 -20 9 -22 38 -3 35
-5 37 -40 40 -36 3 -38 5 -38 37 0 32 -2 34 -37 37 l-38 3 -3 98 -3 97 26 0
c25 0 25 -1 25 -75 l0 -75 130 0 130 0 0 55 0 55 -40 0 c-39 0 -40 1 -40 35 0
35 0 35 -45 35 -33 0 -45 -4 -45 -15 0 -10 10 -15 30 -15 28 0 30 -3 30 -35 0
-34 1 -35 40 -35 36 0 40 -2 40 -25 l0 -25 -100 0 -100 0 0 75 0 75 -55 0 -55
0 0 -130z"/>
<path d="M9392 683 l3 -128 93 -3 92 -3 0 56 0 55 -40 0 c-38 0 -40 2 -40 30
0 20 -5 30 -15 30 -11 0 -15 -12 -15 -45 l0 -45 40 0 c36 0 40 -2 40 -25 0
-24 -3 -25 -60 -25 l-60 0 0 100 0 100 60 0 60 0 0 -30 c0 -20 5 -30 15 -30
11 0 15 12 15 45 l0 45 -95 0 -96 0 3 -127z"/>
<path d="M11380 765 c0 -33 4 -45 15 -45 10 0 15 10 15 30 0 27 3 30 30 30 20
0 30 5 30 15 0 11 -12 15 -45 15 l-45 0 0 -45z"/>
<path d="M11550 795 c0 -10 11 -15 35 -15 24 0 35 5 35 15 0 10 -11 15 -35 15
-24 0 -35 -5 -35 -15z"/>
<path d="M3470 760 c0 -29 4 -40 15 -40 11 0 15 11 15 40 0 29 -4 40 -15 40
-11 0 -15 -11 -15 -40z"/>
<path d="M7465 788 c-3 -8 -4 -81 -3 -163 l3 -150 193 -3 c182 -2 192 -3 192
-22 0 -17 -9 -19 -77 -22 l-78 -3 0 -50 0 -50 78 -3 c68 -3 77 -5 77 -22 0
-17 -9 -19 -77 -22 l-78 -3 -3 -52 -3 -53 80 0 81 0 0 -40 0 -40 75 0 c68 0
75 -2 75 -20 0 -17 -8 -19 -67 -22 -53 -2 -68 -6 -68 -18 0 -12 17 -16 83 -18
l82 -3 0 56 0 55 -75 0 -75 0 0 40 0 40 -75 0 c-68 0 -75 2 -75 20 0 18 7 20
75 20 l75 0 0 55 0 55 -75 0 c-73 0 -75 1 -75 25 0 24 2 25 75 25 l75 0 0 55
0 55 -190 0 -189 0 -3 142 c-2 102 -6 143 -15 146 -7 2 -15 -3 -18 -10z"/>
<path d="M720 735 l0 -55 45 0 c33 0 45 4 45 15 0 10 -10 15 -30 15 -25 0 -30
4 -30 25 0 21 5 25 30 25 20 0 30 5 30 15 0 11 -12 15 -45 15 l-45 0 0 -55z"/>
<path d="M2450 644 l0 -95 53 3 52 3 0 45 c0 33 -4 45 -15 45 -10 0 -16 -12
-18 -32 -2 -25 -8 -33 -23 -33 -17 0 -19 7 -19 65 l0 65 30 0 c20 0 30 5 30
15 0 11 -12 15 -45 15 l-45 0 0 -96z"/>
<path d="M2855 727 c-3 -7 -4 -67 -3 -133 l3 -119 45 0 c33 0 45 4 45 15 0 10
-12 16 -33 18 l-33 3 3 97 3 97 33 3 c47 5 35 26 -16 30 -29 2 -44 -1 -47 -11z"/>
<path d="M3640 725 c0 -10 11 -15 35 -15 24 0 35 5 35 15 0 10 -11 15 -35 15
-24 0 -35 -5 -35 -15z"/>
<path d="M4317 734 c-4 -4 -7 -29 -7 -56 l0 -48 40 0 40 0 0 -40 0 -40 40 0
40 0 0 -40 0 -40 75 0 75 0 0 -35 0 -35 55 0 55 0 0 45 c0 33 -4 45 -15 45
-10 0 -15 -10 -15 -30 0 -25 -4 -30 -25 -30 -22 0 -25 4 -25 40 l0 40 -75 0
-75 0 0 35 c0 34 -1 35 -40 35 l-40 0 0 40 0 40 -41 0 c-36 0 -40 2 -37 23 3
20 8 22 63 22 l60 0 3 -37 3 -38 115 0 114 0 0 -30 c0 -20 5 -30 15 -30 11 0
15 12 15 45 l0 45 -114 0 -115 0 -3 38 -3 37 -85 3 c-47 1 -89 0 -93 -4z"/>
<path d="M5677 733 c-18 -17 0 -23 73 -23 64 0 80 3 80 15 0 12 -15 15 -73 15
-41 0 -77 -3 -80 -7z"/>
<path d="M7020 725 c0 -10 10 -15 30 -15 25 0 30 -4 30 -25 0 -24 -2 -25 -70
-25 -56 0 -70 -3 -70 -15 0 -12 16 -15 85 -15 l85 0 0 55 0 55 -45 0 c-33 0
-45 -4 -45 -15z"/>
<path d="M8990 645 l0 -95 56 0 55 0 -3 47 c-4 56 -28 73 -28 19 0 -32 -3 -36
-25 -36 -24 0 -25 2 -25 65 l0 65 30 0 c20 0 30 5 30 15 0 11 -12 15 -45 15
l-45 0 0 -95z"/>
<path d="M9797 734 c-14 -15 -6 -23 26 -26 24 -2 33 -8 35 -25 3 -23 2 -23
-112 -23 l-116 0 0 -95 0 -95 50 0 50 0 0 40 0 40 100 0 100 0 0 -30 c0 -20 5
-30 15 -30 11 0 15 12 15 45 l0 45 -130 0 -130 0 0 -35 c0 -28 -4 -35 -20 -35
-18 0 -20 7 -20 60 l0 60 116 0 115 0 -3 53 -3 52 -40 3 c-23 2 -44 0 -48 -4z"/>
<path d="M11454 727 c-3 -8 -4 -49 -2 -93 l3 -79 37 -3 c35 -3 37 -5 40 -40
l3 -37 50 0 50 0 3 38 c3 29 7 37 23 37 17 0 19 -7 19 -75 l0 -75 40 0 40 0 0
-60 0 -60 -60 0 -60 0 0 35 0 35 -55 0 -55 0 0 -90 0 -90 74 0 75 0 3 -37 3
-38 53 -3 52 -3 0 40 0 41 40 0 40 0 0 75 c0 73 1 75 25 75 23 0 25 -4 25 -40
l0 -40 75 0 c68 0 75 -2 75 -20 0 -18 -7 -20 -75 -20 l-75 0 0 -55 0 -55 34 0
c33 0 35 -2 38 -37 l3 -38 53 -3 52 -3 0 50 c0 39 -4 51 -15 51 -10 0 -15 -10
-15 -30 0 -25 -4 -30 -25 -30 -22 0 -25 4 -25 35 0 33 -2 35 -35 35 -31 0 -35
3 -35 25 0 24 2 25 75 25 l75 0 0 55 0 55 -75 0 -75 0 0 35 0 35 -55 0 -55 0
0 -75 0 -75 -40 0 -40 0 0 -40 c0 -33 -3 -40 -20 -40 -17 0 -20 7 -20 40 l0
40 -80 0 -80 0 0 60 c0 57 1 60 25 60 23 0 25 -4 25 -40 l0 -40 90 0 90 0 0
95 0 95 -35 0 -35 0 0 75 0 75 -55 0 -55 0 0 -35 c0 -31 -3 -35 -25 -35 -22 0
-25 4 -25 35 0 33 -2 35 -35 35 l-35 0 0 65 c0 58 2 65 20 65 17 0 20 -7 20
-40 l0 -40 55 0 55 0 0 40 0 40 100 0 100 0 0 -25 c0 -23 -4 -25 -40 -25 l-41
0 3 -92 3 -93 38 -3 c34 -3 37 -6 37 -33 0 -19 5 -29 15 -29 11 0 15 12 15 50
l0 50 -40 0 -40 0 0 60 0 60 40 0 40 0 0 55 0 55 -130 0 -130 0 0 -40 c0 -36
-2 -40 -25 -40 -22 0 -25 4 -25 40 l0 40 -50 0 c-33 0 -52 -5 -56 -13z"/>
<path d="M4000 690 c0 -27 -3 -30 -30 -30 -20 0 -30 -5 -30 -15 0 -11 12 -15
50 -15 l50 0 0 45 c0 38 -3 45 -20 45 -16 0 -20 -7 -20 -30z"/>
<path d="M1030 620 c0 -64 3 -80 15 -80 12 0 15 16 15 80 0 64 -3 80 -15 80
-12 0 -15 -16 -15 -80z"/>
<path d="M5040 615 c0 -38 3 -45 20 -45 16 0 20 7 20 30 0 23 4 30 20 30 16 0
20 -7 20 -30 0 -20 5 -30 15 -30 11 0 15 12 15 45 l0 45 -55 0 -55 0 0 -45z"/>
<path d="M6290 645 c0 -11 11 -15 40 -15 29 0 40 4 40 15 0 11 -11 15 -40 15
-29 0 -40 -4 -40 -15z"/>
<path d="M7310 615 c0 -33 4 -45 15 -45 10 0 15 10 15 30 0 25 4 30 25 30 24
0 25 -3 25 -60 l0 -60 -30 0 c-24 0 -30 -4 -30 -21 0 -18 5 -20 43 -17 l42 3
3 93 3 92 -56 0 -55 0 0 -45z"/>
<path d="M3857 643 c-4 -3 -7 -26 -7 -50 l0 -43 45 0 c33 0 45 4 45 15 0 10
-10 15 -30 15 -28 0 -30 3 -30 35 0 33 -8 43 -23 28z"/>
<path d="M4160 531 c0 -102 2 -121 15 -121 13 0 15 17 13 117 -2 82 -7 118
-15 121 -10 3 -13 -25 -13 -117z"/>
<path d="M4237 644 c-4 -4 -7 -22 -7 -41 0 -27 4 -33 21 -33 17 0 20 5 17 37
-3 35 -17 51 -31 37z"/>
<path d="M5357 643 c-4 -3 -7 -35 -7 -70 l0 -63 -35 0 -35 0 0 -55 0 -55 75 0
75 0 0 -40 0 -40 55 0 55 0 0 75 0 75 60 0 c53 0 60 -2 60 -20 0 -17 -7 -20
-40 -20 l-40 0 0 -55 0 -55 40 0 c33 0 40 -3 40 -20 0 -18 -7 -20 -75 -20
l-75 0 0 -55 0 -55 45 0 c33 0 45 4 45 15 0 10 -10 15 -30 15 -23 0 -30 4 -30
20 0 18 7 20 75 20 l75 0 0 54 0 55 -37 3 c-31 2 -39 7 -41 26 -3 20 1 22 37
22 l41 0 0 55 0 55 -90 0 -89 0 -3 -77 c-3 -72 -5 -78 -25 -81 -21 -3 -23 1
-23 37 l0 41 -75 0 c-68 0 -75 2 -75 20 0 16 7 20 35 20 l35 0 0 90 c0 83 -5
101 -23 83z"/>
<path d="M10090 611 c0 -30 4 -41 16 -41 11 0 14 9 12 37 -4 52 -28 56 -28 4z"/>
<path d="M1570 480 l0 -150 -25 0 c-22 0 -25 4 -25 35 l0 35 -55 0 -55 0 0
-35 0 -35 -75 0 -75 0 0 -114 0 -115 -37 -3 c-38 -3 -38 -3 -38 -47 0 -53 22
-68 27 -19 3 30 6 33 41 36 l37 3 0 115 0 114 75 0 75 0 0 35 c0 31 3 35 25
35 22 0 25 -4 25 -35 l0 -35 55 0 55 0 0 150 c0 143 1 150 20 150 19 0 20 -7
20 -105 0 -87 3 -105 15 -105 13 0 15 20 15 120 l0 120 -50 0 -50 0 0 -150z"/>
<path d="M2080 565 c0 -12 15 -15 75 -15 60 0 75 3 75 15 0 12 -15 15 -75 15
-60 0 -75 -3 -75 -15z"/>
<path d="M3020 565 c0 -12 14 -15 70 -15 63 0 70 -2 70 -20 0 -18 -7 -20 -75
-20 l-75 0 0 -40 0 -40 -80 0 -80 0 0 -55 0 -55 130 0 130 0 0 40 c0 36 3 40
25 40 23 0 25 -4 25 -40 l0 -41 93 3 92 3 0 50 0 50 -37 3 c-29 2 -38 8 -38
22 0 13 8 20 27 22 17 2 29 10 31 21 3 14 -4 17 -42 17 l-46 0 0 -55 0 -55 35
0 c31 0 35 -3 35 -25 0 -24 -3 -25 -60 -25 l-60 0 0 40 0 40 -55 0 -55 0 0
-40 0 -41 -97 3 c-93 3 -98 4 -101 26 -3 21 -1 22 77 22 l81 0 0 35 0 35 75 0
75 0 0 55 0 55 -85 0 c-69 0 -85 -3 -85 -15z"/>
<path d="M3560 565 c0 -10 10 -15 29 -15 27 0 30 -3 33 -37 3 -37 4 -38 46
-41 37 -3 42 -1 42 17 0 17 -6 21 -30 21 -28 0 -30 3 -30 35 0 35 0 35 -45 35
-33 0 -45 -4 -45 -15z"/>
<path d="M3710 565 c0 -10 10 -15 29 -15 25 0 30 -4 33 -27 5 -46 32 -35 36
15 l3 42 -50 0 c-39 0 -51 -4 -51 -15z"/>
<path d="M4560 564 c0 -11 9 -14 37 -12 52 4 56 28 4 28 -30 0 -41 -4 -41 -16z"/>
<path d="M7000 534 c0 -38 3 -45 18 -42 10 2 18 14 20 30 2 20 9 28 29 30 15
2 28 9 31 16 2 8 -11 12 -47 12 l-51 0 0 -46z"/>
<path d="M7160 545 c0 -34 -1 -35 -40 -35 l-40 0 0 -40 0 -40 -40 0 -40 0 0
-40 c0 -39 -1 -40 -35 -40 -33 0 -35 -2 -35 -35 0 -32 -2 -35 -30 -35 -24 0
-30 -4 -30 -21 0 -18 5 -20 43 -17 41 3 42 4 45 40 3 35 5 37 40 40 35 3 37 5
40 41 3 35 5 37 38 37 32 0 34 2 34 34 0 33 2 35 38 38 35 3 37 5 40 41 3 29
7 37 23 37 17 0 19 -7 19 -60 l0 -60 -35 0 -35 0 0 -55 0 -55 90 0 90 0 0 40
c0 36 3 40 25 40 25 0 25 -1 25 -81 l0 -80 53 3 52 3 3 78 3 77 59 0 60 0 0
-100 0 -100 -40 0 -41 0 3 -92 3 -93 128 -3 127 -3 0 56 0 55 -85 0 c-69 0
-85 -3 -85 -15 0 -12 14 -15 70 -15 63 0 70 -2 70 -20 0 -19 -7 -20 -100 -20
l-100 0 0 60 0 60 40 0 40 0 0 130 0 131 -92 -3 -93 -3 -3 -72 c-3 -65 -5 -73
-22 -73 -18 0 -20 7 -20 75 l0 75 -55 0 -55 0 0 -40 0 -40 -60 0 c-57 0 -60 1
-60 25 0 23 4 25 40 25 l40 0 0 90 0 90 -55 0 -55 0 0 -35z"/>
<path d="M8620 565 c0 -13 13 -15 77 -13 50 2 78 7 81 16 3 9 -17 12 -77 12
-66 0 -81 -3 -81 -15z"/>
<path d="M5430 530 c0 -29 4 -40 15 -40 11 0 15 11 15 40 0 29 -4 40 -15 40
-11 0 -15 -11 -15 -40z"/>
<path d="M30 430 l0 -130 75 0 75 0 0 -40 0 -40 55 0 55 0 0 40 0 40 80 0 80
0 0 50 0 50 -80 0 c-79 0 -80 0 -80 25 0 23 4 25 40 25 l40 0 0 40 0 40 60 0
60 0 0 -40 0 -40 40 0 40 0 0 -40 0 -40 130 0 130 0 0 50 c0 38 -4 50 -15 50
-10 0 -15 -11 -15 -35 l0 -35 -100 0 -100 0 0 40 0 40 -40 0 -40 0 0 40 0 40
-90 0 -90 0 0 -40 0 -40 -40 0 -40 0 0 -55 0 -55 75 0 c68 0 75 -2 75 -20 0
-18 -7 -20 -75 -20 l-75 0 0 -40 c0 -33 -3 -40 -19 -40 -16 0 -20 8 -23 38
l-3 37 -77 3 -78 3 0 99 0 100 110 0 c91 0 110 3 110 15 0 13 -21 15 -125 15
l-125 0 0 -130z"/>
<path d="M640 495 l0 -45 50 0 c38 0 50 4 50 15 0 10 -10 15 -30 15 -27 0 -30
3 -30 30 0 23 -4 30 -20 30 -17 0 -20 -7 -20 -45z"/>
<path d="M1410 510 c0 -28 -3 -30 -34 -30 -33 0 -35 -2 -38 -37 l-3 -38 -77
-3 -78 -3 0 -114 0 -115 -71 0 c-52 0 -70 -3 -67 -12 3 -9 32 -14 86 -16 l82
-3 0 116 0 115 80 0 80 0 0 40 c0 39 1 40 35 40 35 0 35 0 35 45 0 33 -4 45
-15 45 -10 0 -15 -10 -15 -30z"/>
<path d="M1490 500 c0 -29 4 -40 15 -40 11 0 15 11 15 40 0 29 -4 40 -15 40
-11 0 -15 -11 -15 -40z"/>
<path d="M2465 501 c-10 -17 4 -31 31 -31 23 0 24 -3 24 -60 l0 -60 -35 0 -35
0 0 -55 0 -55 35 0 c28 0 35 -4 35 -20 0 -18 -7 -20 -60 -20 l-60 0 0 115 0
115 -35 0 c-32 0 -35 2 -35 30 0 23 -4 30 -20 30 -17 0 -20 -7 -20 -45 l0 -45
40 0 40 0 0 -115 0 -115 96 0 95 0 -3 52 -3 53 -37 3 c-29 2 -38 8 -38 22 0
14 9 20 38 22 l37 3 0 90 0 90 -42 3 c-22 2 -44 -2 -48 -7z"/>
<path d="M3850 470 l0 -40 -70 0 c-56 0 -70 -3 -70 -15 0 -12 16 -15 85 -15
l85 0 0 35 c0 32 2 35 30 35 23 0 30 4 30 20 0 17 -7 20 -45 20 l-45 0 0 -40z"/>
<path d="M4237 503 c-4 -3 -7 -28 -7 -55 l0 -48 80 0 80 0 0 -40 0 -40 45 0
c33 0 45 4 45 15 0 10 -10 15 -30 15 -28 0 -30 2 -30 40 l0 40 -75 0 c-68 0
-75 2 -75 20 0 18 7 20 65 20 58 0 65 2 65 20 0 18 -7 20 -78 20 -43 0 -82 -3
-85 -7z"/>
<path d="M7930 340 l0 -170 50 0 50 0 0 45 c0 33 -4 45 -15 45 -10 0 -15 -10
-15 -30 0 -23 -4 -30 -20 -30 -19 0 -20 7 -20 135 l0 135 60 0 60 0 0 -35 0
-35 55 0 55 0 0 35 c0 28 4 35 20 35 19 0 20 -7 20 -210 0 -203 -1 -210 -20
-210 -19 0 -20 7 -20 150 l0 150 -55 0 -55 0 0 -160 c0 -136 2 -160 15 -160
13 0 15 23 15 145 l0 145 25 0 25 0 0 -155 0 -155 50 0 50 0 0 250 0 250 -50
0 -50 0 0 -40 c0 -36 -2 -40 -25 -40 -22 0 -25 4 -25 40 l0 40 -90 0 -90 0 0
-170z"/>
<path d="M9010 491 c0 -17 6 -21 30 -21 l30 0 0 -60 0 -60 -40 0 -40 0 0 -55
0 -55 40 0 c33 0 40 -3 40 -20 0 -18 -7 -20 -60 -20 l-59 0 -3 113 -3 112 -37
3 c-35 3 -38 6 -38 33 0 19 -5 29 -15 29 -11 0 -15 -12 -15 -45 0 -45 0 -45
35 -45 l35 0 0 -115 0 -115 96 0 95 0 -3 52 -3 53 -37 3 c-30 3 -38 7 -38 23
0 16 7 19 40 19 l41 0 -3 93 -3 92 -42 3 c-38 3 -43 1 -43 -17z"/>
<path d="M9390 415 c0 -68 2 -75 20 -75 18 0 20 7 20 75 0 68 -2 75 -20 75
-18 0 -20 -7 -20 -75z"/>
<path d="M9470 405 l0 -85 55 0 55 0 0 40 0 40 100 0 100 0 0 -80 0 -80 75 0
c68 0 75 -2 75 -20 0 -16 -7 -20 -30 -20 -20 0 -30 -5 -30 -15 0 -11 12 -15
45 -15 l45 0 0 55 0 55 -75 0 -75 0 0 75 0 75 -130 0 -130 0 0 -40 c0 -36 -2
-40 -25 -40 -24 0 -25 2 -25 70 0 56 -3 70 -15 70 -12 0 -15 -16 -15 -85z"/>
<path d="M9860 445 c0 -45 0 -45 35 -45 31 0 35 -3 35 -25 0 -21 -5 -25 -30
-25 -20 0 -30 -5 -30 -15 0 -11 12 -15 45 -15 l45 0 0 55 0 55 -35 0 c-32 0
-35 2 -35 30 0 20 -5 30 -15 30 -11 0 -15 -12 -15 -45z"/>
<path d="M110 435 c0 -33 4 -45 15 -45 10 0 15 10 15 30 0 23 4 30 20 30 16 0
20 -7 20 -30 0 -23 4 -30 20 -30 17 0 20 7 20 45 l0 45 -55 0 -55 0 0 -45z"/>
<path d="M950 440 c0 -33 -3 -40 -19 -40 -15 0 -21 8 -23 33 -2 20 -8 32 -18
32 -11 0 -15 -12 -15 -45 l0 -45 53 -3 52 -3 0 40 c0 37 2 41 25 41 23 0 25
-4 25 -40 l0 -40 40 0 c33 0 40 -3 40 -20 0 -17 -7 -20 -40 -20 l-40 0 0 -40
0 -40 -40 0 -40 0 0 -40 0 -40 -40 0 -40 0 0 -85 0 -85 54 0 c54 0 55 0 58 32
l3 33 60 0 c55 0 60 -2 63 -22 3 -20 -1 -23 -32 -23 -20 0 -36 -4 -36 -10 0
-5 23 -10 51 -10 l50 0 -3 48 -3 47 -90 0 -90 0 -3 -37 c-3 -30 -7 -38 -23
-38 -17 0 -19 7 -19 60 l0 60 35 0 c34 0 35 1 35 40 l0 40 40 0 40 0 0 40 0
40 40 0 40 0 0 50 0 50 -40 0 -40 0 0 40 0 40 -55 0 -55 0 0 -40z"/>
<path d="M4480 415 c0 -10 10 -15 30 -15 27 0 30 -3 30 -30 0 -20 5 -30 15
-30 11 0 15 12 15 45 l0 45 -45 0 c-33 0 -45 -4 -45 -15z"/>
<path d="M11454 417 c-2 -7 -3 -82 -2 -167 l3 -155 38 -3 c29 -3 37 -7 37 -23
0 -14 -7 -19 -30 -19 -23 0 -30 -4 -30 -20 0 -17 7 -20 45 -20 l45 0 0 55 0
55 -35 0 -35 0 0 140 0 140 65 0 c51 0 65 3 65 15 0 20 -158 22 -166 2z"/>
<path d="M11930 415 c0 -10 10 -15 30 -15 28 0 30 -2 30 -41 l0 -40 47 3 c55
4 70 25 21 30 -30 3 -33 6 -36 41 -3 37 -4 37 -48 37 -32 0 -44 -4 -44 -15z"/>
<path d="M8000 375 c0 -24 5 -35 15 -35 10 0 15 11 15 35 0 24 -5 35 -15 35
-10 0 -15 -11 -15 -35z"/>
<path d="M490 320 l0 -70 -75 0 -75 0 0 -40 0 -40 -70 0 c-56 0 -70 -3 -70
-15 0 -12 16 -15 85 -15 l85 0 0 40 0 40 75 0 75 0 0 85 c0 69 -3 85 -15 85
-12 0 -15 -14 -15 -70z"/>
<path d="M4160 265 c0 -69 3 -85 15 -85 12 0 15 14 15 70 l0 70 70 0 c56 0 70
3 70 15 0 12 -16 15 -85 15 l-85 0 0 -85z"/>
<path d="M4632 338 c3 -7 21 -14 41 -16 28 -2 37 1 37 12 0 12 -11 16 -41 16
-28 0 -39 -4 -37 -12z"/>
<path d="M1910 175 l0 -165 45 0 c38 0 45 3 45 20 0 16 -7 20 -30 20 l-30 0 0
145 c0 122 -2 145 -15 145 -13 0 -15 -25 -15 -165z"/>
<path d="M7082 293 c3 -48 3 -48 41 -51 35 -3 37 -5 37 -38 l0 -34 75 0 75 0
0 -40 0 -40 45 0 c33 0 45 4 45 15 0 10 -10 15 -30 15 -28 0 -30 2 -30 40 l0
40 -75 0 -75 0 0 40 0 40 -40 0 c-38 0 -40 2 -40 30 0 20 -5 30 -16 30 -12 0
-14 -10 -12 -47z"/>
<path d="M7540 300 c0 -29 4 -40 15 -40 11 0 15 11 15 40 0 29 -4 40 -15 40
-11 0 -15 -11 -15 -40z"/>
<path d="M8452 178 l3 -163 45 0 c33 0 45 4 45 15 0 10 -12 16 -32 18 l-33 3
0 145 c0 122 -2 144 -15 144 -13 0 -15 -22 -13 -162z"/>
<path d="M9630 290 l0 -50 50 0 50 0 0 50 c0 38 -4 50 -15 50 -10 0 -15 -10
-15 -30 0 -23 -4 -30 -20 -30 -16 0 -20 7 -20 30 0 20 -5 30 -15 30 -11 0 -15
-12 -15 -50z"/>
<path d="M587 323 c-15 -14 -6 -23 23 -23 25 0 30 -4 30 -25 0 -22 -4 -25 -35
-25 l-35 0 0 -85 c0 -69 3 -85 15 -85 12 0 15 14 15 70 l0 70 40 0 40 0 0 55
0 55 -43 0 c-24 0 -47 -3 -50 -7z"/>
<path d="M720 275 l0 -55 40 0 40 0 0 -100 0 -100 -25 0 c-23 0 -25 4 -25 41
l0 40 -52 -3 -53 -3 -3 -38 -3 -37 -60 0 -59 0 0 40 0 40 -120 0 c-100 0 -120
-2 -120 -15 0 -12 18 -15 105 -15 l105 0 0 -35 0 -35 95 0 95 0 0 35 c0 28 4
35 20 35 16 0 20 -7 20 -35 l0 -35 55 0 55 0 0 125 0 125 -41 0 c-36 0 -40 2
-37 23 3 19 10 22 60 25 l57 3 3 -33 c2 -21 8 -33 18 -33 11 0 16 13 18 48 l3
47 -95 0 -96 0 0 -55z"/>
<path d="M4317 274 c-4 -4 -7 -40 -7 -81 l0 -73 -75 0 -75 0 0 -45 c0 -33 4
-45 15 -45 10 0 15 10 15 30 l0 30 75 0 75 0 0 75 0 75 180 0 c173 0 180 -1
180 -20 0 -17 -7 -20 -40 -20 l-40 0 0 -55 0 -55 40 0 c33 0 40 -3 40 -20 0
-18 -7 -20 -65 -20 l-65 0 0 75 0 75 -50 0 -50 0 0 -75 0 -74 -107 -3 c-88 -2
-108 -6 -108 -18 0 -12 20 -15 120 -15 l120 0 3 78 c3 68 5 77 22 77 17 0 19
-9 22 -77 l3 -78 90 0 90 0 3 52 3 53 -40 0 c-37 0 -41 2 -41 25 0 23 4 25 41
25 l40 0 -3 53 -3 52 -201 3 c-110 1 -203 -1 -207 -4z"/>
<path d="M7250 260 c0 -18 5 -21 38 -18 25 2 37 8 37 18 0 10 -12 16 -37 18
-33 3 -38 0 -38 -18z"/>
<path d="M9397 273 c-4 -3 -7 -28 -7 -55 l0 -48 40 0 40 0 0 -60 c0 -53 -2
-60 -19 -60 -14 0 -21 8 -23 28 -2 16 -9 27 -18 27 -11 0 -15 -12 -15 -45 l0
-45 53 -3 52 -3 0 95 0 96 -35 0 c-28 0 -35 4 -35 20 0 18 7 20 60 20 l60 0 0
-35 c0 -34 1 -35 40 -35 l40 0 0 -40 c0 -39 1 -40 35 -40 28 0 35 -4 35 -19 0
-14 -8 -21 -27 -23 -46 -5 -35 -32 15 -36 l42 -3 0 55 0 56 -35 0 c-34 0 -35
1 -35 40 l0 40 -40 0 -40 0 0 40 0 40 -88 0 c-49 0 -92 -3 -95 -7z"/>
<path d="M4232 223 c2 -26 8 -38 18 -38 10 0 16 12 18 38 3 32 0 37 -18 37
-18 0 -21 -5 -18 -37z"/>
<path d="M1410 210 c0 -38 -2 -40 -30 -40 -20 0 -30 -5 -30 -15 0 -11 12 -15
45 -15 l45 0 0 40 c0 36 3 40 25 40 21 0 25 -5 25 -30 0 -20 5 -30 15 -30 11
0 15 12 15 45 l0 45 -55 0 -55 0 0 -40z"/>
<path d="M1990 145 l0 -55 35 0 c32 0 35 -2 35 -30 0 -23 4 -30 20 -30 17 0
20 7 20 45 l0 45 -40 0 c-36 0 -40 3 -40 25 l0 25 134 0 135 0 3 -37 3 -38
113 -3 c104 -2 112 -4 112 -22 0 -19 -7 -20 -135 -20 l-135 0 0 35 0 35 -55 0
-55 0 0 -45 c0 -33 4 -45 15 -45 10 0 15 10 15 30 0 25 4 30 25 30 23 0 25 -4
25 -40 l0 -40 168 2 167 3 3 53 3 52 -115 0 -115 0 -3 38 -3 37 -167 3 -168 2
0 -55z"/>
<path d="M3010 115 c0 -69 3 -85 15 -85 12 0 15 14 15 70 l0 70 60 0 60 0 0
-60 c0 -57 -1 -60 -25 -60 -21 0 -25 5 -25 31 0 20 -4 29 -12 27 -8 -3 -13
-22 -13 -49 l0 -44 53 -3 52 -3 0 95 0 96 -90 0 -90 0 0 -85z"/>
<path d="M3240 104 l0 -95 53 3 52 3 3 38 c3 35 5 37 38 37 34 0 34 0 34 45 0
33 -4 45 -15 45 -10 0 -15 -10 -15 -30 0 -28 -2 -30 -40 -30 -39 0 -40 -1 -40
-35 0 -28 -4 -35 -20 -35 -18 0 -20 7 -20 60 l0 60 30 0 c20 0 30 5 30 15 0
11 -12 15 -45 15 l-45 0 0 -96z"/>
<path d="M6930 161 c0 -37 -2 -41 -25 -41 -21 0 -25 5 -25 30 0 20 -5 30 -15
30 -11 0 -15 -12 -15 -45 l0 -45 55 0 55 0 0 40 c0 33 3 40 20 40 17 0 20 -7
20 -40 l0 -40 114 0 115 0 3 -38 3 -37 130 0 130 0 0 90 0 90 -47 3 c-38 2
-48 0 -48 -12 0 -11 10 -16 30 -16 l30 0 0 -60 0 -60 -95 0 -95 0 0 35 0 35
-114 0 -115 0 -3 38 -3 37 -52 3 -53 3 0 -40z"/>
<path d="M8530 145 l0 -55 40 0 c38 0 40 -2 40 -30 0 -20 5 -30 15 -30 11 0
15 12 15 45 l0 45 -40 0 c-36 0 -40 3 -40 25 l0 25 140 0 140 0 0 -40 0 -40
115 0 c108 0 115 -1 115 -20 0 -19 -7 -20 -140 -20 l-140 0 0 35 0 35 -55 0
-55 0 0 -45 c0 -33 4 -45 15 -45 10 0 15 10 15 30 0 25 4 30 25 30 23 0 25 -4
25 -40 l0 -40 168 2 167 3 3 53 3 52 -115 0 -116 0 0 40 0 40 -170 0 -170 0 0
-55z"/>
<path d="M4390 145 c0 -24 5 -35 15 -35 10 0 15 11 15 35 0 24 -5 35 -15 35
-10 0 -15 -11 -15 -35z"/>
<path d="M9780 94 l0 -85 53 3 52 3 3 38 c3 29 7 37 23 37 14 0 19 -7 19 -30
0 -20 5 -30 15 -30 11 0 15 12 15 45 l0 45 -50 0 -50 0 0 -35 c0 -31 -3 -35
-25 -35 -24 0 -25 2 -25 65 0 51 -3 65 -15 65 -12 0 -15 -16 -15 -86z"/>
<path d="M430 154 c0 -11 9 -14 37 -12 52 4 56 28 4 28 -30 0 -41 -4 -41 -16z"/>
<path d="M660 155 c0 -11 11 -15 40 -15 29 0 40 4 40 15 0 11 -11 15 -40 15
-29 0 -40 -4 -40 -15z"/>
<path d="M5140 104 c0 -11 9 -14 37 -12 52 4 56 28 4 28 -30 0 -41 -4 -41 -16z"/>
<path d="M9550 70 c0 -29 4 -40 15 -40 11 0 15 11 15 40 0 29 -4 40 -15 40
-11 0 -15 -11 -15 -40z"/>
<path d="M11610 60 l0 -50 160 0 c153 0 160 1 160 20 0 19 -7 20 -145 20
l-145 0 0 30 c0 20 -5 30 -15 30 -11 0 -15 -12 -15 -50z"/>
<path d="M6945 40 c-14 -23 11 -30 116 -30 102 0 109 1 109 20 0 19 -7 20
-109 20 -63 0 -112 -4 -116 -10z"/>
</g>
</svg>
