<?xml version="1.0" standalone="no"?>
<!DOCTYPE svg PUBLIC "-//W3C//DTD SVG 20010904//EN"
 "http://www.w3.org/TR/2001/REC-SVG-20010904/DTD/svg10.dtd">
<svg version="1.0" xmlns="http://www.w3.org/2000/svg"
 width="1262.000000pt" height="183.000000pt" viewBox="0 0 1262.000000 183.000000"
 preserveAspectRatio="xMidYMid meet">

<g transform="translate(0.000000,183.000000) scale(0.100000,-0.100000)"
fill="#000000" stroke="none">
<path d="M5821 1793 c4 -48 -1 -63 -23 -63 -19 0 -20 -2 -8 -10 18 -12 51 -13
49 -2 -1 4 -1 22 0 40 l1 32 65 0 65 0 0 -40 0 -40 115 0 115 0 0 -30 0 -30
-145 0 c-90 0 -145 -4 -145 -10 0 -6 58 -10 155 -10 l155 0 0 50 0 50 -115 0
-115 0 0 40 0 40 -86 0 c-75 0 -85 -2 -83 -17z"/>
<path d="M7010 1765 c0 -25 5 -45 10 -45 6 0 10 14 10 30 l0 30 185 0 c158 0
185 2 185 15 0 13 -28 15 -195 15 l-195 0 0 -45z"/>
<path d="M8530 1770 l0 -40 -40 0 -40 0 0 -50 0 -50 40 0 40 0 0 -65 0 -65
-40 0 -40 0 0 -50 0 -50 45 0 c33 0 45 4 45 15 0 10 -10 15 -31 15 -26 0 -30
3 -27 23 2 18 10 23 41 25 l37 3 0 90 0 89 -41 0 c-36 0 -40 2 -37 23 2 18 10
23 41 25 35 3 37 5 37 38 0 30 3 34 25 34 l25 0 0 -215 0 -215 -80 0 -80 0 0
-245 0 -245 130 0 130 0 0 40 0 40 80 0 80 0 0 75 0 75 75 0 75 0 0 55 0 55
-130 0 -130 0 0 -80 0 -80 -75 0 -75 0 0 -35 c0 -31 -3 -35 -25 -35 l-25 0 0
141 c0 140 0 140 23 137 20 -3 22 -9 25 -80 l3 -78 49 0 49 0 3 78 3 77 38 3
c35 3 37 5 37 38 0 30 3 34 25 34 22 0 25 -4 25 -35 l0 -35 50 0 50 0 0 205 0
205 -115 0 -115 0 0 60 0 60 140 0 140 0 0 -34 c0 -33 2 -35 38 -38 30 -2 38
-7 40 -25 3 -21 -1 -23 -37 -23 l-41 0 0 -55 0 -55 40 0 c36 0 40 -2 40 -25 0
-22 -4 -25 -40 -25 l-40 0 0 -124 0 -125 38 -3 37 -3 3 -102 3 -103 -41 0 -40
0 0 -50 0 -50 40 0 c36 0 40 -2 40 -25 0 -22 -4 -25 -40 -25 l-40 0 0 -40 c0
-39 -1 -40 -35 -40 l-35 0 0 -75 0 -75 -40 0 -40 0 0 -55 0 -55 40 0 c38 0 40
-2 40 -30 0 -16 5 -30 10 -30 6 0 10 20 10 45 0 45 0 45 -35 45 -31 0 -35 3
-35 25 0 22 4 25 35 25 l35 0 0 75 0 75 40 0 40 0 0 40 0 40 41 0 40 0 -3 53
-3 52 -37 3 c-29 2 -38 8 -38 22 0 14 9 20 38 22 l37 3 3 128 3 127 -41 0 -40
0 0 105 0 105 40 0 40 0 0 50 0 50 -40 0 c-36 0 -40 3 -40 25 0 23 4 25 40 25
l40 0 0 50 0 50 -40 0 -40 0 0 40 0 40 -165 0 -165 0 0 -90 0 -90 115 0 115 0
-2 -177 c-3 -176 -3 -178 -25 -181 -21 -3 -23 1 -23 37 l0 41 -55 0 -55 0 0
-40 c0 -39 -1 -40 -35 -40 l-35 0 0 -75 c0 -73 -1 -75 -25 -75 -24 0 -25 2
-25 75 l0 75 -55 0 -55 0 0 -165 0 -165 55 0 55 0 0 35 0 35 75 0 75 0 0 80 0
80 100 0 100 0 0 -25 c0 -24 -2 -25 -75 -25 l-75 0 0 -75 0 -75 -75 0 -75 0 0
-40 0 -40 -105 0 -105 0 0 215 0 215 80 0 80 0 0 245 0 245 -55 0 -55 0 0 -40z"/>
<path d="M9490 1795 c0 -12 19 -15 115 -15 96 0 115 3 115 15 0 12 -19 15
-115 15 -96 0 -115 -3 -115 -15z"/>
<path d="M9780 1770 l0 -40 -40 0 -40 0 0 -75 0 -75 -34 0 c-33 0 -35 -2 -38
-37 -2 -31 -7 -39 -25 -41 -23 -3 -23 -2 -23 112 l0 116 -90 0 -90 0 0 -50 0
-50 35 0 35 0 0 -100 0 -100 -35 0 -35 0 0 -55 0 -55 35 0 35 0 0 -60 0 -60
-35 0 -35 0 0 -170 0 -170 90 0 90 0 0 55 0 55 -40 0 c-33 0 -40 3 -40 20 0
17 7 20 40 20 l40 0 0 85 c0 69 -3 85 -15 85 -12 0 -15 -14 -15 -70 l0 -70
-40 0 -40 0 0 -50 0 -50 40 0 c36 0 40 -2 40 -25 0 -24 -2 -25 -65 -25 l-66 0
3 138 3 137 38 3 37 3 0 89 0 89 -37 3 c-30 2 -38 7 -38 23 0 16 8 21 38 23
l37 3 0 130 0 129 -41 0 c-36 0 -40 2 -37 23 3 20 8 22 63 22 l60 0 3 -112 3
-113 49 0 50 0 0 35 c0 34 1 35 40 35 l39 0 3 78 3 77 38 3 c35 3 37 5 37 38
l0 34 70 0 c56 0 70 3 70 15 0 12 -16 15 -85 15 l-85 0 0 -40z"/>
<path d="M10010 1770 l0 -40 -70 0 c-40 0 -70 -4 -70 -10 0 -6 35 -10 85 -10
l85 0 0 35 0 35 256 0 255 0 -3 -22 c-3 -22 -7 -23 -115 -26 l-113 -3 0 -34
c0 -34 -1 -35 -40 -35 l-40 0 0 -40 0 -40 -100 0 -100 0 0 40 0 40 -130 0
-130 0 0 -55 0 -55 41 0 c36 0 40 -2 37 -22 -3 -21 -9 -23 -80 -26 l-78 -3 0
-34 0 -35 -75 0 -75 0 0 -89 0 -90 38 -3 37 -3 3 -152 3 -153 34 0 c31 0 35
-3 35 -25 0 -22 -4 -25 -35 -25 l-35 0 0 -90 0 -90 50 0 50 0 0 35 0 35 115 0
115 0 0 170 0 170 -50 0 -50 0 0 -40 0 -40 -40 0 -40 0 0 -90 0 -90 55 0 55 0
0 45 c0 33 -4 45 -15 45 -10 0 -15 -10 -15 -30 0 -25 -4 -30 -25 -30 -24 0
-25 3 -25 59 l0 60 38 3 c35 3 37 5 40 41 3 29 7 37 23 37 18 0 19 -8 19 -140
l0 -140 -115 0 -115 0 0 -41 c0 -36 -2 -40 -22 -37 -21 3 -23 9 -26 66 l-3 62
41 0 40 0 0 55 0 55 -40 0 -40 0 0 150 0 150 -35 0 -35 0 0 65 0 65 74 0 75 0
3 38 3 37 78 3 77 3 0 49 0 50 -40 0 c-36 0 -40 3 -40 25 l0 25 100 0 100 0 0
-40 0 -40 130 0 130 0 0 40 0 40 40 0 c39 0 40 1 40 35 l0 34 113 3 112 3 3
53 3 52 -285 0 -286 0 0 -40z"/>
<path d="M10640 1794 c0 -11 9 -14 37 -12 52 4 56 28 4 28 -30 0 -41 -4 -41
-16z"/>
<path d="M10920 1720 l0 -90 45 0 c33 0 45 4 45 15 0 10 -10 15 -30 15 l-30 0
0 60 0 60 60 0 c57 0 60 -1 60 -25 0 -21 -5 -25 -30 -25 -20 0 -30 -5 -30 -15
0 -11 12 -15 45 -15 l45 0 0 55 0 55 -90 0 -90 0 0 -90z"/>
<path d="M11230 1720 l0 -90 45 0 c33 0 45 4 45 15 0 10 -11 15 -35 15 l-35 0
0 60 c0 57 1 60 25 60 23 0 25 -4 25 -40 l0 -40 40 0 c39 0 40 -1 40 -35 l0
-35 55 0 55 0 0 90 0 90 -50 0 c-38 0 -50 -4 -50 -15 0 -10 11 -15 35 -15 l35
0 0 -60 c0 -57 -1 -60 -25 -60 -22 0 -25 4 -25 34 0 33 -2 35 -37 38 -36 3
-38 5 -41 41 l-3 37 -50 0 -49 0 0 -90z"/>
<path d="M12160 1795 c0 -11 11 -15 40 -15 29 0 40 4 40 15 0 11 -11 15 -40
15 -29 0 -40 -4 -40 -15z"/>
<path d="M12300 1735 l0 -75 -100 0 c-93 0 -100 1 -100 20 0 18 7 20 70 20 56
0 70 3 70 15 0 12 -16 15 -85 15 l-85 0 0 -50 0 -50 130 0 130 0 0 75 c0 73 1
75 25 75 l25 0 0 -100 0 -100 -115 0 -115 0 0 -55 0 -55 35 0 c28 0 35 -4 35
-20 0 -16 -7 -20 -35 -20 l-34 0 -3 -77 c-3 -72 -5 -78 -25 -81 -21 -3 -23 1
-23 37 l0 41 -55 0 -55 0 0 -75 0 -75 -35 0 -35 0 0 -55 0 -55 35 0 35 0 0
-60 0 -60 -100 0 -100 0 0 75 0 75 -50 0 -50 0 0 -170 0 -170 50 0 50 0 0 40
c0 36 3 40 25 40 23 0 25 -4 25 -40 l0 -40 115 0 115 0 0 -34 c0 -33 2 -35 38
-38 30 -2 38 -7 40 -25 3 -21 -1 -23 -37 -23 l-41 0 0 -75 0 -75 -60 0 -60 0
0 100 c0 93 1 100 20 100 18 0 20 -7 20 -70 0 -56 3 -70 15 -70 12 0 15 16 15
85 l0 85 -50 0 -50 0 0 -130 0 -130 90 0 90 0 0 75 0 75 41 0 40 0 -3 53 -3
52 -37 3 c-36 3 -38 5 -38 38 l0 34 -115 0 -115 0 0 40 0 40 -55 0 -55 0 0
-40 c0 -33 -3 -40 -20 -40 -19 0 -20 7 -20 140 0 133 1 140 20 140 18 0 20 -7
20 -75 l0 -75 130 0 130 0 0 90 0 90 -35 0 c-31 0 -35 3 -35 25 0 22 4 25 35
25 l35 0 0 75 c0 73 1 75 25 75 23 0 25 -4 25 -41 l0 -40 53 3 52 3 3 78 3 77
34 0 35 0 0 50 0 50 -35 0 c-31 0 -35 3 -35 25 l0 25 115 0 115 0 0 130 0 130
-55 0 -55 0 0 -75z"/>
<path d="M12530 1770 l0 -40 -40 0 -40 0 0 -90 0 -90 40 0 40 0 0 -70 c0 -56
3 -70 15 -70 12 0 15 16 15 85 l0 85 -40 0 -40 0 0 60 0 60 40 0 40 0 0 40 c0
36 3 40 25 40 24 0 25 -3 25 -60 l0 -60 -30 0 c-20 0 -30 -5 -30 -15 0 -10 11
-15 35 -15 l35 0 0 90 0 90 -45 0 -45 0 0 -40z"/>
<path d="M11150 1761 c0 -30 4 -41 16 -41 11 0 14 9 12 37 -4 52 -28 56 -28 4z"/>
<path d="M6930 1755 c0 -19 5 -35 10 -35 6 0 10 16 10 35 0 19 -4 35 -10 35
-5 0 -10 -16 -10 -35z"/>
<path d="M7160 1655 l0 -75 -30 0 c-20 0 -30 -5 -30 -16 0 -12 9 -14 43 -12
l42 3 3 78 3 77 59 0 c57 0 60 -1 60 -25 0 -22 -4 -25 -35 -25 -35 0 -35 0
-35 -45 0 -25 5 -45 10 -45 6 0 10 14 10 30 0 28 2 30 40 30 l40 0 0 50 0 50
-90 0 -90 0 0 -75z"/>
<path d="M7390 1655 l0 -75 -40 0 -40 0 0 -50 0 -50 40 0 c38 0 40 -2 40 -30
l0 -31 -62 3 -63 3 -3 38 -3 37 -90 0 -89 0 0 -50 0 -50 40 0 40 0 0 -140 0
-140 -40 0 -40 0 0 -50 0 -50 40 0 40 0 0 -80 0 -80 40 0 c39 0 40 -1 40 -35
l0 -35 50 0 50 0 0 75 0 75 65 0 c63 0 65 -1 65 -25 0 -22 -4 -25 -40 -25
l-40 0 0 -80 0 -80 -75 0 -75 0 0 -35 c0 -31 -3 -35 -25 -35 -24 0 -25 2 -25
75 l0 75 -130 0 -130 0 0 -40 0 -40 -40 0 -40 0 0 -85 0 -85 40 0 40 0 0 -65
c0 -63 -1 -65 -25 -65 -21 0 -25 5 -25 30 0 20 -5 30 -15 30 -11 0 -15 -12
-15 -45 l0 -45 50 0 50 0 0 90 0 90 -35 0 -35 0 0 65 0 65 34 0 c33 0 35 2 38
38 l3 37 103 3 102 3 0 -81 0 -80 50 0 50 0 0 40 0 40 80 0 80 0 0 75 0 75 35
0 35 0 0 50 0 50 -90 0 -90 0 0 -75 c0 -73 -1 -75 -25 -75 -22 0 -25 4 -25 40
0 39 -1 40 -35 40 l-35 0 0 75 0 75 -40 0 c-36 0 -40 3 -40 25 0 23 4 25 40
25 l40 0 0 165 0 165 -40 0 c-38 0 -40 2 -40 30 l0 30 65 0 65 0 0 -40 0 -40
90 0 90 0 0 50 0 50 -40 0 c-36 0 -40 3 -40 24 0 21 5 25 38 28 l37 3 3 78 c3
74 4 78 25 75 20 -3 22 -10 25 -70 4 -95 22 -85 22 12 l0 80 -50 0 -50 0 0
-75z"/>
<path d="M8780 1720 c0 -6 32 -10 75 -10 43 0 75 4 75 10 0 6 -32 10 -75 10
-43 0 -75 -4 -75 -10z"/>
<path d="M10160 1695 c0 -28 -4 -35 -20 -35 -16 0 -20 7 -20 30 0 20 -5 30
-15 30 -11 0 -15 -12 -15 -45 l0 -45 50 0 50 0 0 35 c0 32 2 35 30 35 20 0 30
5 30 15 0 11 -12 15 -45 15 -45 0 -45 0 -45 -35z"/>
<path d="M10620 1695 l0 -34 -112 -3 -113 -3 0 -50 0 -50 44 0 c27 0 46 5 49
13 2 8 -8 12 -33 12 -32 0 -36 3 -33 23 3 21 7 22 116 25 l112 3 0 34 0 35 65
0 65 0 0 -135 0 -135 -40 0 -40 0 0 -55 0 -55 45 0 c33 0 45 4 45 15 0 10 -10
15 -30 15 -25 0 -30 4 -30 25 0 23 4 25 40 25 l40 0 0 165 0 165 -95 0 -95 0
0 -35z"/>
<path d="M6850 1520 l0 -200 40 0 c39 0 40 -1 40 -35 l0 -35 50 0 50 0 0 205
0 205 -50 0 -50 0 0 -120 c0 -73 4 -120 10 -120 6 0 10 42 10 105 l0 105 30 0
30 0 0 -181 0 -180 -27 3 c-24 3 -28 8 -31 41 -3 35 -5 37 -38 37 l-34 0 0
185 c0 158 -2 185 -15 185 -13 0 -15 -29 -15 -200z"/>
<path d="M7080 1685 c0 -24 5 -35 15 -35 10 0 15 11 15 35 0 24 -5 35 -15 35
-10 0 -15 -11 -15 -35z"/>
<path d="M9630 1680 c0 -22 5 -40 10 -40 6 0 10 18 10 40 0 22 -4 40 -10 40
-5 0 -10 -18 -10 -40z"/>
<path d="M11530 1680 c0 -29 4 -40 15 -40 11 0 15 11 15 40 0 29 -4 40 -15 40
-11 0 -15 -11 -15 -40z"/>
<path d="M11070 1620 l0 -40 -41 0 -40 0 3 -52 3 -53 78 -3 77 -3 0 -34 c0
-32 2 -34 38 -37 30 -2 38 -7 40 -25 3 -22 0 -23 -62 -23 l-66 0 0 30 c0 20
-5 30 -15 30 -11 0 -15 -12 -15 -45 l0 -45 90 0 90 0 0 55 0 55 -35 0 c-33 0
-35 2 -35 35 l0 34 -77 3 c-72 3 -78 5 -81 26 -3 20 1 22 37 22 l41 0 0 40 c0
38 2 40 30 40 20 0 30 5 30 15 0 11 -12 15 -45 15 l-45 0 0 -40z"/>
<path d="M6290 1640 c0 -5 16 -10 35 -10 19 0 35 5 35 10 0 6 -16 10 -35 10
-19 0 -35 -4 -35 -10z"/>
<path d="M5820 1600 c0 -39 1 -40 35 -40 32 0 35 -2 35 -30 0 -29 -1 -30 -51
-30 -31 0 -48 -4 -44 -10 3 -5 33 -10 66 -10 l59 0 0 50 0 50 -40 0 c-38 0
-40 2 -40 30 0 17 -4 30 -10 30 -5 0 -10 -18 -10 -40z"/>
<path d="M5970 1530 l0 -50 40 0 40 0 0 -80 0 -80 50 0 50 0 0 40 c0 36 3 40
25 40 23 0 25 -4 25 -40 l0 -40 90 0 90 0 0 40 c0 36 3 40 25 40 l25 0 0 -115
0 -115 90 0 90 0 0 40 c0 45 -17 55 -22 13 -3 -27 -5 -28 -68 -28 l-65 0 -3
113 -3 112 -44 0 c-45 0 -45 0 -45 -35 l0 -35 -70 0 -70 0 0 35 c0 35 0 35
-45 35 -45 0 -45 0 -45 -35 0 -32 -2 -35 -30 -35 l-30 0 0 75 0 75 -40 0 c-38
0 -40 2 -40 30 l0 31 68 -3 67 -3 3 -37 3 -38 75 0 74 0 0 -30 c0 -16 5 -30
10 -30 6 0 10 18 10 40 l0 40 -75 0 -75 0 0 40 0 40 -90 0 -90 0 0 -50z"/>
<path d="M6220 1570 c0 -5 45 -11 103 -12 l102 -3 3 -27 c3 -25 0 -28 -27 -28
-17 0 -31 -4 -31 -10 0 -5 18 -10 40 -10 l40 0 0 50 0 50 -115 0 c-67 0 -115
-4 -115 -10z"/>
<path d="M8760 1540 c0 -39 -1 -40 -35 -40 l-35 0 0 -80 c0 -97 18 -107 22
-12 l3 67 38 3 c35 3 37 5 37 38 0 30 3 34 25 34 24 0 25 -3 25 -60 l0 -60
-30 0 c-20 0 -30 -5 -30 -15 0 -11 12 -15 45 -15 l45 0 0 90 0 90 -55 0 -55 0
0 -40z"/>
<path d="M10560 1565 c0 -11 11 -15 40 -15 29 0 40 4 40 15 0 11 -11 15 -40
15 -29 0 -40 -4 -40 -15z"/>
<path d="M11160 1565 c0 -10 11 -15 35 -15 32 0 35 -2 35 -30 0 -16 5 -30 10
-30 6 0 10 20 10 45 l0 45 -45 0 c-33 0 -45 -4 -45 -15z"/>
<path d="M11300 1410 l0 -170 40 0 c33 0 40 -3 40 -20 0 -18 -7 -20 -65 -20
l-65 0 0 35 0 35 -50 0 -50 0 0 -45 c0 -33 4 -45 15 -45 10 0 15 10 15 30 0
25 4 30 25 30 22 0 25 -4 25 -35 l0 -35 90 0 90 0 0 49 0 50 -37 3 -38 3 -3
138 -3 137 141 0 c141 0 141 0 138 -22 -2 -19 -10 -24 -40 -26 l-38 -3 0 -130
0 -129 40 0 40 0 0 -100 0 -100 -40 0 -40 0 0 -90 0 -90 55 0 55 0 0 45 c0 33
-4 45 -15 45 -10 0 -15 -10 -15 -30 0 -25 -4 -30 -25 -30 -24 0 -25 3 -25 60
l0 60 40 0 40 0 0 129 0 130 -37 3 -38 3 -3 98 -3 97 41 0 40 0 0 55 0 55
-170 0 -170 0 0 -170z"/>
<path d="M11990 1535 c0 -33 4 -45 15 -45 10 0 15 10 15 30 0 25 4 30 25 30
24 0 25 -3 25 -60 l0 -60 -60 0 -60 0 0 30 c0 20 -5 30 -15 30 -11 0 -15 -12
-15 -45 l0 -45 90 0 90 0 0 90 0 90 -55 0 -55 0 0 -45z"/>
<path d="M10707 1563 c-4 -3 -7 -19 -7 -35 0 -26 -3 -28 -40 -28 -39 0 -40 -1
-40 -35 l0 -35 -65 0 c-51 0 -65 -3 -65 -15 0 -12 16 -15 80 -15 l80 0 0 35
c0 34 1 35 40 35 l40 0 0 50 c0 46 -7 60 -23 43z"/>
<path d="M6510 1525 c0 -19 5 -35 10 -35 6 0 10 16 10 35 0 19 -4 35 -10 35
-5 0 -10 -16 -10 -35z"/>
<path d="M9400 1525 c0 -19 5 -35 10 -35 6 0 10 16 10 35 0 19 -4 35 -10 35
-5 0 -10 -16 -10 -35z"/>
<path d="M9930 1440 l0 -120 55 0 55 0 0 80 c0 77 1 80 23 76 17 -2 23 -10 25
-39 l3 -37 50 0 49 0 0 35 0 35 65 0 65 0 0 -35 c0 -33 2 -35 35 -35 31 0 35
-3 35 -25 0 -22 -4 -25 -35 -25 -34 0 -35 -1 -35 -40 l0 -40 -215 0 -214 0 -3
78 -3 77 -52 3 -53 3 0 -155 0 -156 -25 0 c-21 0 -25 5 -25 30 0 20 -5 30 -15
30 -11 0 -15 -12 -15 -45 l0 -45 55 0 55 0 0 155 0 155 25 0 c24 0 25 -2 25
-74 l0 -74 213 -7 c276 -9 271 -10 275 38 3 35 5 37 38 37 l34 0 0 55 0 55
-35 0 c-33 0 -35 2 -35 35 l0 35 -95 0 -95 0 0 -35 c0 -28 -4 -35 -20 -35 -16
0 -20 7 -20 35 l0 35 -55 0 -55 0 0 -75 c0 -73 -1 -75 -25 -75 l-25 0 0 105
c0 87 -3 105 -15 105 -12 0 -15 -20 -15 -120z"/>
<path d="M10410 1485 c0 -12 15 -15 75 -15 60 0 75 3 75 15 0 12 -15 15 -75
15 -60 0 -75 -3 -75 -15z"/>
<path d="M11380 1451 l0 -50 38 -3 37 -3 3 -112 3 -113 34 0 c31 0 35 -3 35
-25 0 -24 -2 -25 -75 -25 l-75 0 0 -85 c0 -69 3 -85 15 -85 12 0 15 14 15 70
l0 70 75 0 75 0 0 55 0 55 -35 0 -34 0 -3 113 -3 112 -37 3 c-30 3 -38 7 -38
23 0 14 7 19 30 19 20 0 30 5 30 15 0 11 -12 15 -45 15 l-45 0 0 -49z"/>
<path d="M12300 1450 l0 -50 90 0 90 0 0 45 c0 33 -4 45 -15 45 -10 0 -15 -10
-15 -30 l0 -30 -60 0 c-53 0 -60 2 -60 20 0 16 7 20 30 20 20 0 30 5 30 15 0
11 -12 15 -45 15 l-45 0 0 -50z"/>
<path d="M7470 1420 l0 -70 -80 0 -80 0 0 -90 0 -90 80 0 c79 0 80 0 80 -25 0
-22 -4 -25 -40 -25 l-40 0 0 -40 c0 -36 -2 -40 -25 -40 -21 0 -25 5 -25 30 0
20 -5 30 -15 30 -11 0 -15 -11 -15 -40 l0 -40 55 0 55 0 0 35 c0 33 2 35 35
35 l35 0 0 50 0 50 -75 0 -75 0 0 65 0 65 75 0 75 0 0 85 c0 50 -4 85 -10 85
-6 0 -10 -30 -10 -70z"/>
<path d="M11627 1424 c-14 -15 -6 -23 26 -26 24 -2 32 -8 32 -23 0 -15 -8 -21
-32 -23 -21 -2 -33 -9 -33 -18 0 -10 13 -14 51 -14 l50 0 -3 53 -3 52 -40 3
c-23 2 -44 0 -48 -4z"/>
<path d="M5782 1414 c8 -7 36 -12 76 -13 31 -1 32 -3 32 -41 l0 -40 40 0 40 0
0 -75 0 -75 80 0 c79 0 80 0 80 -25 0 -25 -1 -25 -80 -25 l-80 0 0 -40 0 -40
-40 0 -40 0 0 -50 0 -50 130 0 130 0 0 50 0 50 -45 0 c-25 0 -45 -4 -45 -10 0
-5 16 -10 36 -10 33 0 35 -2 32 -27 l-3 -28 -102 -3 -103 -3 0 31 c0 28 3 30
35 30 33 0 35 2 35 35 l0 35 80 0 80 0 0 50 0 50 -80 0 -80 0 0 80 0 80 -35 0
c-33 0 -35 2 -35 35 l0 35 -72 0 c-39 0 -69 -3 -66 -6z"/>
<path d="M6520 1410 c0 -5 16 -10 35 -10 19 0 35 5 35 10 0 6 -16 10 -35 10
-19 0 -35 -4 -35 -10z"/>
<path d="M9070 1375 c0 -24 5 -35 15 -35 10 0 15 11 15 35 0 24 -5 35 -15 35
-10 0 -15 -11 -15 -35z"/>
<path d="M10240 1380 l0 -30 -70 0 c-56 0 -70 -3 -70 -15 0 -12 16 -15 85 -15
l85 0 0 45 c0 33 -4 45 -15 45 -10 0 -15 -10 -15 -30z"/>
<path d="M5804 1342 c3 -5 0 -13 -6 -15 -8 -3 -6 -6 5 -6 19 -1 23 14 5 25 -6
4 -8 3 -4 -4z"/>
<path d="M6510 1305 c0 -25 5 -45 10 -45 6 0 10 14 10 30 0 27 3 30 30 30 20
0 30 5 30 15 0 11 -11 15 -40 15 l-40 0 0 -45z"/>
<path d="M9640 1335 c0 -10 10 -15 30 -15 27 0 30 -3 30 -30 0 -20 5 -30 15
-30 11 0 15 12 15 45 l0 45 -45 0 c-33 0 -45 -4 -45 -15z"/>
<path d="M10470 1310 c0 -38 -2 -40 -30 -40 -20 0 -30 -5 -30 -15 0 -11 12
-15 45 -15 l45 0 0 40 0 40 60 0 c57 0 60 -1 60 -25 0 -21 -5 -25 -31 -25 -47
0 -30 -24 19 -28 l42 -3 0 55 0 56 -90 0 -90 0 0 -40z"/>
<path d="M11840 1275 c0 -73 -1 -75 -25 -75 -22 0 -25 4 -25 35 l0 35 -50 0
-50 0 0 -46 c0 -50 22 -59 28 -11 2 19 9 27 23 27 15 0 19 -7 19 -35 l0 -35
55 0 55 0 0 75 0 75 30 0 c20 0 30 5 30 15 0 11 -12 15 -45 15 l-45 0 0 -75z"/>
<path d="M12220 1275 l0 -75 -75 0 -75 0 0 -55 0 -55 41 0 c36 0 40 -2 37 -22
-2 -17 -11 -24 -30 -26 -17 -2 -28 -9 -28 -18 0 -12 10 -14 43 -12 l42 3 3 53
3 52 -40 0 c-37 0 -41 2 -41 25 0 24 2 25 75 25 l75 0 0 75 0 75 66 0 c62 0
65 -1 62 -22 -2 -19 -10 -24 -40 -26 l-38 -3 0 -49 0 -49 38 -3 c30 -2 38 -7
40 -25 3 -21 -1 -23 -37 -23 l-41 0 0 -75 0 -75 -40 0 -40 0 0 -80 c0 -73 -2
-80 -20 -80 -17 0 -20 7 -20 40 l0 40 -40 0 c-38 0 -40 2 -40 30 0 20 -5 30
-15 30 -11 0 -15 -12 -15 -45 l0 -45 40 0 40 0 0 -40 0 -40 50 0 49 0 3 78 3
77 38 3 37 3 0 75 0 74 40 0 40 0 0 55 0 55 -40 0 c-33 0 -40 3 -40 19 0 16 8
20 38 23 l37 3 3 53 3 52 -95 0 -96 0 0 -75z"/>
<path d="M7080 1260 c0 -56 3 -70 15 -70 12 0 15 14 15 70 0 56 -3 70 -15 70
-12 0 -15 -14 -15 -70z"/>
<path d="M7240 1140 c0 -120 4 -190 10 -190 6 0 10 70 10 190 0 120 -4 190
-10 190 -6 0 -10 -70 -10 -190z"/>
<path d="M12450 1295 c0 -24 5 -35 15 -35 10 0 15 11 15 35 0 24 -5 35 -15 35
-10 0 -15 -11 -15 -35z"/>
<path d="M6060 1260 c0 -6 32 -10 75 -10 43 0 75 4 75 10 0 6 -32 10 -75 10
-43 0 -75 -4 -75 -10z"/>
<path d="M6280 1230 l0 -40 -40 0 -40 0 0 -85 0 -85 50 0 50 0 0 35 c0 32 2
35 30 35 28 0 30 -3 30 -35 0 -34 1 -35 40 -35 22 0 40 5 40 10 0 6 -13 10
-30 10 -28 0 -30 2 -30 40 l0 40 -50 0 -50 0 0 -40 c0 -38 -2 -40 -30 -40
l-30 0 0 65 0 65 40 0 40 0 0 41 c0 38 1 40 28 37 21 -2 28 -9 30 -30 5 -43
22 -33 22 12 l0 40 -50 0 -50 0 0 -40z"/>
<path d="M7410 1260 c0 -5 16 -10 35 -10 19 0 35 5 35 10 0 6 -16 10 -35 10
-19 0 -35 -4 -35 -10z"/>
<path d="M6850 1215 l0 -45 40 0 c36 0 40 -2 40 -25 0 -22 -4 -25 -40 -25
l-40 0 0 -50 0 -50 90 0 90 0 0 40 c0 22 -4 40 -10 40 -5 0 -10 -13 -10 -30
l0 -30 -65 0 c-63 0 -65 1 -65 25 0 22 4 25 35 25 l35 0 0 50 0 50 -35 0 c-33
0 -35 2 -35 35 0 24 -5 35 -15 35 -11 0 -15 -12 -15 -45z"/>
<path d="M9877 1193 c-16 -15 -5 -23 33 -23 29 0 40 4 40 15 0 10 -10 15 -33
15 -19 0 -37 -3 -40 -7z"/>
<path d="M6450 1105 c0 -10 11 -15 35 -15 24 0 35 5 35 15 0 10 -11 15 -35 15
-24 0 -35 -5 -35 -15z"/>
<path d="M11230 1075 c0 -25 5 -45 10 -45 6 0 10 14 10 30 0 25 4 30 25 30
l25 0 0 -115 0 -115 95 0 95 0 0 85 c0 69 -3 85 -15 85 -12 0 -15 -14 -15 -70
l0 -70 -65 0 -65 0 0 115 0 115 -50 0 -50 0 0 -45z"/>
<path d="M11840 1065 c0 -24 5 -35 15 -35 10 0 15 11 15 35 0 24 -5 35 -15 35
-10 0 -15 -11 -15 -35z"/>
<path d="M12220 1065 c0 -24 5 -35 15 -35 10 0 15 11 15 35 0 24 -5 35 -15 35
-10 0 -15 -11 -15 -35z"/>
<path d="M5790 1029 c-13 -9 -12 -10 3 -5 23 7 29 -9 31 -92 l1 -67 113 -3
112 -3 0 -34 0 -35 75 0 75 0 0 -65 0 -65 -35 0 c-34 0 -35 -1 -35 -40 0 -38
-2 -40 -30 -40 l-30 0 0 65 0 65 30 0 c17 0 30 5 30 10 0 6 -18 10 -40 10
l-40 0 0 -85 0 -85 50 0 50 0 0 35 c0 33 2 35 35 35 l35 0 0 90 0 90 -75 0
-75 0 0 40 0 40 -115 0 -115 0 -1 33 c0 17 0 51 1 75 1 35 -2 42 -17 42 -10 0
-25 -5 -33 -11z"/>
<path d="M10010 991 l0 -50 38 -3 37 -3 3 -112 3 -113 49 0 50 0 0 35 c0 34 1
35 40 35 l40 0 0 55 0 55 -40 0 -40 0 0 60 c0 57 1 60 25 60 22 0 25 -4 25
-35 l0 -35 55 0 55 0 0 35 c0 28 4 35 20 35 16 0 20 -7 20 -35 l0 -35 95 0 95
0 0 35 c0 28 4 35 20 35 19 0 20 -7 20 -135 l0 -134 -112 -3 -113 -3 -3 -37
c-3 -36 -5 -38 -38 -38 -33 0 -34 -1 -34 -40 l0 -40 -65 0 c-63 0 -65 1 -65
25 0 23 4 25 40 25 l40 0 0 40 0 40 41 0 40 0 -3 42 c-4 49 -28 66 -28 19 0
-29 -2 -31 -40 -31 l-40 0 0 -40 0 -40 -41 0 -40 0 3 -52 3 -53 90 0 90 0 3
38 c3 35 5 37 37 37 32 0 34 2 37 38 l3 37 113 3 112 3 0 164 0 165 -50 0 -50
0 0 -35 0 -35 -65 0 -65 0 0 35 0 35 -50 0 -50 0 0 -35 c0 -31 -3 -35 -25 -35
-22 0 -25 4 -25 35 l0 35 -55 0 -55 0 0 -90 0 -90 40 0 c36 0 40 -2 40 -25 0
-22 -4 -25 -40 -25 -39 0 -40 -1 -40 -35 0 -28 -4 -35 -20 -35 -18 0 -20 8
-22 113 l-3 112 -37 3 c-30 3 -38 7 -38 23 0 14 7 19 30 19 20 0 30 5 30 15 0
11 -12 15 -45 15 l-45 0 0 -49z"/>
<path d="M10700 845 l0 -185 -40 0 -40 0 0 -40 0 -40 -60 0 c-57 0 -60 1 -60
25 0 21 5 25 30 25 20 0 30 5 30 15 0 11 -12 15 -45 15 l-45 0 0 -55 0 -55 90
0 90 0 0 40 0 40 40 0 40 0 0 200 c0 171 -2 200 -15 200 -13 0 -15 -27 -15
-185z"/>
<path d="M6510 914 l0 -105 -27 3 c-27 3 -28 5 -31 71 -4 94 -22 84 -22 -13
l0 -80 50 0 50 0 0 115 c0 70 -4 115 -10 115 -6 0 -10 -42 -10 -106z"/>
<path d="M6590 990 c0 -16 5 -30 10 -30 6 0 10 14 10 30 0 17 -4 30 -10 30 -5
0 -10 -13 -10 -30z"/>
<path d="M6200 910 l0 -50 45 0 c33 0 45 4 45 15 0 10 -11 15 -35 15 -31 0
-35 3 -35 25 0 26 1 26 68 23 l67 -3 0 -60 0 -60 -37 -3 -38 -3 0 -50 0 -49
40 0 c22 0 40 5 40 10 0 6 -13 10 -30 10 -27 0 -30 3 -30 30 0 28 2 30 40 30
l40 0 0 85 0 85 -90 0 -90 0 0 -50z"/>
<path d="M6850 920 c0 -29 4 -40 15 -40 10 0 15 10 15 30 l0 30 65 0 c63 0 65
-1 65 -25 0 -21 -5 -25 -30 -25 -20 0 -30 -5 -30 -15 0 -11 11 -15 40 -15 l40
0 0 50 0 50 -90 0 -90 0 0 -40z"/>
<path d="M7080 915 c0 -24 5 -35 15 -35 10 0 15 11 15 35 0 24 -5 35 -15 35
-10 0 -15 -11 -15 -35z"/>
<path d="M8920 920 c0 -28 -2 -30 -40 -30 l-40 0 0 -40 c0 -36 -2 -40 -25 -40
-21 0 -25 5 -25 30 0 20 -5 30 -15 30 -11 0 -15 -12 -15 -46 l0 -45 53 3 52 3
3 38 c3 35 5 37 38 37 34 0 34 0 34 45 0 25 -4 45 -10 45 -5 0 -10 -13 -10
-30z"/>
<path d="M10330 875 c0 -10 10 -15 29 -15 27 0 30 -3 33 -37 l3 -38 53 -3 52
-3 0 40 c0 37 2 41 25 41 21 0 25 -5 25 -30 0 -20 5 -30 15 -30 11 0 15 12 15
45 l0 45 -55 0 -55 0 0 -41 c0 -36 -2 -40 -22 -37 -19 2 -24 10 -26 41 -3 37
-4 37 -48 37 -32 0 -44 -4 -44 -15z"/>
<path d="M11930 875 c0 -11 11 -15 40 -15 29 0 40 4 40 15 0 11 -11 15 -40 15
-29 0 -40 -4 -40 -15z"/>
<path d="M10010 800 l0 -70 -40 0 -40 0 0 -50 0 -50 40 0 c38 0 40 -2 40 -30
0 -20 5 -30 15 -30 11 0 15 12 15 45 l0 45 -40 0 c-36 0 -40 3 -40 25 0 23 4
25 40 25 l40 0 0 80 c0 64 -3 80 -15 80 -12 0 -15 -14 -15 -70z"/>
<path d="M5830 800 c0 -5 14 -10 30 -10 28 0 30 -2 30 -40 l0 -40 40 0 c38 0
40 -2 40 -30 0 -16 5 -30 10 -30 6 0 10 18 10 40 0 39 -1 40 -35 40 -34 0 -35
1 -35 40 l0 40 -45 0 c-25 0 -45 -4 -45 -10z"/>
<path d="M8452 683 l3 -128 38 -3 c35 -3 37 -5 37 -38 0 -33 1 -34 40 -34 l40
0 0 -40 0 -40 50 0 50 0 0 40 c0 36 3 40 25 40 25 0 25 -1 25 -80 l0 -80 40 0
c36 0 40 -2 40 -25 0 -25 -1 -26 -62 -23 l-63 3 -3 37 -3 38 -49 0 -49 0 -3
-38 c-2 -30 -7 -38 -25 -40 -22 -3 -23 -1 -23 77 l0 81 -40 0 c-38 0 -40 2
-40 30 0 20 -5 30 -15 30 -11 0 -15 -12 -15 -45 l0 -45 40 0 40 0 0 -75 0 -75
55 0 55 0 0 35 c0 31 3 35 25 35 22 0 25 -4 25 -35 l0 -35 90 0 90 0 0 50 0
50 -40 0 -40 0 0 75 0 75 -50 0 -50 0 0 -35 c0 -31 -3 -35 -25 -35 -22 0 -25
4 -25 35 0 34 -1 35 -40 35 l-40 0 0 40 0 40 -40 0 -40 0 0 100 0 100 25 0
c24 0 25 -2 25 -75 l0 -75 130 0 130 0 0 49 0 50 -37 3 c-36 3 -38 5 -41 41
-3 37 -3 37 -48 37 -53 0 -58 -23 -6 -28 29 -3 32 -6 32 -38 0 -32 2 -34 35
-34 31 0 35 -3 35 -25 l0 -25 -100 0 -100 0 0 75 0 75 -55 0 -56 0 3 -127z"/>
<path d="M9400 680 l0 -130 90 0 90 0 0 55 0 55 -40 0 c-38 0 -40 2 -40 30 0
20 -5 30 -15 30 -11 0 -15 -12 -15 -45 l0 -45 40 0 c36 0 40 -2 40 -25 0 -25
-1 -26 -62 -23 l-63 3 -3 98 -3 97 66 0 65 0 0 -30 c0 -20 5 -30 15 -30 11 0
15 12 15 45 l0 45 -90 0 -90 0 0 -130z"/>
<path d="M11380 765 c0 -33 4 -45 15 -45 10 0 15 10 15 30 0 27 3 30 30 30 20
0 30 5 30 15 0 11 -12 15 -45 15 l-45 0 0 -45z"/>
<path d="M11550 795 c0 -10 11 -15 35 -15 24 0 35 5 35 15 0 10 -11 15 -35 15
-24 0 -35 -5 -35 -15z"/>
<path d="M7470 635 l0 -155 190 0 190 0 0 -25 c0 -24 -2 -25 -75 -25 l-75 0 0
-55 0 -55 75 0 c73 0 75 -1 75 -25 0 -24 -2 -25 -75 -25 l-75 0 0 -50 0 -50
75 0 75 0 0 -40 0 -40 81 0 c78 0 80 -1 77 -22 -3 -21 -9 -23 -70 -26 -95 -4
-85 -22 12 -22 l80 0 0 50 0 50 -75 0 -75 0 0 40 0 40 -81 0 c-78 0 -80 1 -77
23 3 20 9 22 81 25 l77 3 0 49 0 50 -80 0 c-79 0 -80 0 -80 25 0 25 1 25 80
25 l80 0 0 50 0 50 -192 2 -193 3 -3 143 c-4 197 -22 186 -22 -13z"/>
<path d="M11460 645 l0 -95 35 0 c33 0 35 -2 35 -35 l0 -35 55 0 55 0 0 35 c0
31 3 35 25 35 24 0 25 -2 25 -75 l0 -75 35 0 35 0 0 -60 0 -60 -60 0 -60 0 0
35 0 35 -55 0 -55 0 0 -90 0 -89 78 -3 77 -3 3 -37 3 -38 50 0 49 0 0 40 0 40
40 0 40 0 0 75 c0 73 1 75 25 75 22 0 25 -4 25 -35 l0 -34 73 -3 c66 -3 72 -5
75 -25 3 -22 0 -23 -72 -23 l-76 0 0 -55 0 -55 35 0 c33 0 35 -2 35 -35 l0
-35 55 0 55 0 0 45 c0 55 -27 65 -32 13 -2 -25 -8 -33 -23 -33 -16 0 -21 8
-23 38 -3 35 -5 37 -38 37 -30 0 -34 3 -34 25 0 24 2 25 75 25 l75 0 0 55 0
55 -75 0 -75 0 0 35 0 35 -55 0 -55 0 0 -75 0 -75 -40 0 -40 0 0 -40 c0 -33
-3 -40 -20 -40 -17 0 -20 7 -20 40 l0 40 -80 0 -80 0 0 60 c0 57 1 60 25 60
22 0 25 -4 25 -35 l0 -35 90 0 90 0 0 90 0 90 -35 0 -35 0 0 75 0 75 -55 0
-55 0 0 -35 c0 -31 -3 -35 -25 -35 -22 0 -25 4 -25 35 0 33 -2 35 -35 35 l-35
0 0 65 c0 58 2 65 20 65 17 0 20 -7 20 -40 l0 -40 55 0 55 0 0 40 0 40 100 0
100 0 0 -25 c0 -22 -4 -25 -40 -25 l-40 0 0 -89 0 -90 38 -3 c34 -3 37 -6 40
-35 2 -21 9 -33 18 -33 10 0 14 13 14 50 l0 50 -40 0 -40 0 0 60 0 60 40 0 40
0 0 55 0 55 -130 0 -130 0 0 -40 c0 -36 -2 -40 -25 -40 -22 0 -25 4 -25 40 l0
40 -50 0 -50 0 0 -95z"/>
<path d="M5790 720 c0 -5 7 -10 16 -10 8 0 12 5 9 10 -3 6 -10 10 -16 10 -5 0
-9 -4 -9 -10z"/>
<path d="M7020 720 c0 -5 14 -10 30 -10 25 0 30 -4 30 -25 0 -24 -2 -25 -65
-25 -51 0 -65 -3 -65 -15 0 -12 16 -15 80 -15 l80 0 0 50 0 50 -45 0 c-25 0
-45 -4 -45 -10z"/>
<path d="M8990 639 l0 -90 53 3 52 3 3 43 c2 33 0 42 -12 42 -11 0 -16 -10
-16 -30 0 -25 -4 -30 -25 -30 -24 0 -25 2 -25 65 l0 65 30 0 c17 0 30 5 30 10
0 6 -20 10 -45 10 l-45 0 0 -91z"/>
<path d="M9800 720 c0 -5 14 -10 30 -10 25 0 30 -4 30 -25 l0 -25 -115 0 -115
0 0 -90 0 -90 50 0 50 0 0 35 0 35 99 0 100 0 3 -27 c6 -48 28 -39 28 11 l0
46 -130 0 -130 0 0 -41 c0 -36 -2 -40 -22 -37 -21 3 -23 8 -23 63 l0 60 118 3
117 3 0 49 0 50 -45 0 c-25 0 -45 -4 -45 -10z"/>
<path d="M5784 651 c4 -5 0 -12 -6 -14 -7 -3 15 -6 50 -6 59 -1 62 -2 62 -26
0 -23 -3 -25 -49 -25 -77 0 -69 -17 9 -19 l70 -2 0 50 0 51 -71 0 c-40 0 -68
-4 -65 -9z"/>
<path d="M6290 645 c0 -10 11 -15 35 -15 24 0 35 5 35 15 0 10 -11 15 -35 15
-24 0 -35 -5 -35 -15z"/>
<path d="M7310 615 c0 -33 4 -45 15 -45 10 0 15 10 15 30 0 25 4 30 25 30 24
0 25 -2 25 -65 l0 -65 -30 0 c-16 0 -30 -4 -30 -10 0 -5 20 -10 45 -10 l45 0
0 90 0 90 -55 0 -55 0 0 -45z"/>
<path d="M10090 605 c0 -24 5 -35 15 -35 10 0 15 11 15 35 0 24 -5 35 -15 35
-10 0 -15 -11 -15 -35z"/>
<path d="M7010 535 c0 -52 17 -61 22 -12 2 27 8 33 31 35 42 5 32 22 -13 22
l-40 0 0 -45z"/>
<path d="M7160 540 l0 -40 -40 0 c-39 0 -40 -1 -40 -35 0 -33 -2 -35 -35 -35
-34 0 -35 -1 -35 -40 l0 -40 -40 0 -40 0 0 -40 c0 -38 -2 -40 -30 -40 -16 0
-30 -4 -30 -10 0 -5 18 -10 40 -10 39 0 40 1 40 35 0 34 1 35 40 35 l40 0 0
40 0 40 40 0 40 0 0 40 0 40 40 0 40 0 0 41 c0 36 2 40 23 37 20 -3 22 -9 25
-65 l3 -63 -41 0 -40 0 0 -55 0 -55 90 0 90 0 0 40 c0 36 3 40 25 40 24 0 25
-2 25 -75 l0 -75 50 0 50 0 0 75 0 75 65 0 65 0 0 -99 0 -100 -37 -3 -38 -3
-3 -88 -3 -87 131 0 130 0 0 50 0 50 -80 0 c-64 0 -80 -3 -80 -15 0 -12 15
-15 71 -15 67 0 70 -1 67 -22 -3 -22 -8 -23 -105 -26 l-103 -3 0 66 0 65 40 0
41 0 -3 128 -3 127 -87 3 -87 3 -3 -78 c-3 -72 -5 -78 -25 -81 -21 -3 -22 1
-25 75 l-3 78 -50 0 -50 0 -3 -37 -3 -38 -60 0 c-56 0 -59 1 -59 25 0 22 4 25
35 25 l35 0 0 90 0 90 -50 0 -50 0 0 -40z"/>
<path d="M8622 568 c3 -9 30 -14 76 -16 60 -2 72 0 72 13 0 12 -14 15 -76 15
-56 0 -75 -3 -72 -12z"/>
<path d="M7930 335 l0 -165 50 0 50 0 0 45 c0 25 -4 45 -10 45 -5 0 -10 -13
-10 -30 0 -27 -3 -30 -30 -30 l-31 0 3 138 3 137 63 3 62 3 0 -41 0 -40 49 0
50 0 3 38 c2 30 7 38 26 40 l22 3 0 -221 0 -221 -22 3 c-23 3 -23 6 -26 156
l-3 152 -49 0 -50 0 0 -160 c0 -136 2 -160 15 -160 13 0 15 23 15 145 l0 145
25 0 25 0 0 -150 0 -150 50 0 50 0 0 240 0 240 -50 0 -50 0 0 -35 c0 -31 -3
-35 -25 -35 -22 0 -25 4 -25 35 l0 35 -90 0 -90 0 0 -165z"/>
<path d="M9010 490 c0 -5 14 -10 30 -10 l30 0 0 -65 0 -65 -40 0 -40 0 0 -50
0 -50 40 0 c36 0 40 -2 40 -25 0 -24 -2 -25 -65 -25 l-65 0 0 115 0 115 -35 0
c-32 0 -35 2 -35 30 0 20 -5 30 -15 30 -11 0 -15 -12 -15 -45 l0 -45 40 0 40
0 0 -115 0 -115 90 0 90 0 0 49 0 50 -37 3 c-31 2 -39 7 -41 26 -3 20 1 22 37
22 l41 0 0 90 0 90 -45 0 c-25 0 -45 -4 -45 -10z"/>
<path d="M9400 415 c0 -43 4 -75 10 -75 6 0 10 32 10 75 0 43 -4 75 -10 75 -6
0 -10 -32 -10 -75z"/>
<path d="M9472 408 l3 -83 53 -3 52 -3 0 40 0 41 100 0 100 0 0 -75 0 -75 75
0 c73 0 75 -1 75 -25 0 -21 -5 -25 -30 -25 -20 0 -30 -5 -30 -15 0 -11 12 -15
45 -15 l45 0 0 50 0 50 -75 0 -75 0 0 80 0 80 -130 0 -130 0 0 -40 c0 -36 -2
-40 -25 -40 -24 0 -25 2 -25 70 0 56 -3 70 -15 70 -13 0 -15 -14 -13 -82z"/>
<path d="M9860 445 c0 -45 0 -45 35 -45 31 0 35 -3 35 -25 0 -21 -5 -25 -30
-25 -20 0 -30 -5 -30 -15 0 -11 12 -15 45 -15 l45 0 0 55 0 55 -35 0 c-32 0
-35 2 -35 30 0 20 -5 30 -15 30 -11 0 -15 -12 -15 -45z"/>
<path d="M11460 260 l0 -170 35 0 c31 0 35 -3 35 -25 0 -21 -5 -25 -30 -25
-16 0 -30 -4 -30 -10 0 -5 20 -10 45 -10 l45 0 0 50 0 50 -35 0 -35 0 0 140 0
140 65 0 c51 0 65 3 65 15 0 12 -16 15 -80 15 l-80 0 0 -170z"/>
<path d="M11930 415 c0 -10 10 -15 30 -15 28 0 30 -2 30 -40 l0 -40 45 0 c33
0 45 4 45 15 0 10 -10 15 -30 15 -28 0 -30 2 -30 40 l0 40 -45 0 c-33 0 -45
-4 -45 -15z"/>
<path d="M8010 375 c0 -19 5 -35 10 -35 6 0 10 16 10 35 0 19 -4 35 -10 35 -5
0 -10 -16 -10 -35z"/>
<path d="M8457 333 c-4 -3 -7 -75 -7 -160 l0 -153 45 0 c25 0 45 5 45 10 0 6
-13 10 -30 10 l-30 0 0 150 c0 137 -4 163 -23 143z"/>
<path d="M9630 295 l0 -45 50 0 50 0 0 46 c0 53 -23 58 -28 5 -3 -27 -7 -32
-25 -29 -17 2 -23 11 -25 36 -5 48 -22 39 -22 -13z"/>
<path d="M7080 290 l0 -40 40 0 40 0 0 -40 0 -40 74 0 75 0 3 -37 c3 -37 4
-38 46 -41 33 -2 42 0 42 12 0 11 -10 16 -30 16 -28 0 -30 2 -30 40 l0 40 -75
0 -75 0 0 35 c0 34 -1 35 -40 35 -38 0 -40 2 -40 30 0 20 -5 30 -15 30 -11 0
-15 -11 -15 -40z"/>
<path d="M7540 295 c0 -24 5 -35 15 -35 10 0 15 11 15 35 0 24 -5 35 -15 35
-10 0 -15 -11 -15 -35z"/>
<path d="M7250 260 c0 -5 16 -10 35 -10 19 0 35 5 35 10 0 6 -16 10 -35 10
-19 0 -35 -4 -35 -10z"/>
<path d="M9400 220 l0 -50 35 0 35 0 0 -66 c0 -62 -1 -65 -22 -62 -17 2 -24
11 -26 31 -5 42 -22 32 -22 -13 l0 -40 50 0 50 0 0 90 0 90 -41 0 c-36 0 -40
2 -37 23 3 20 9 22 66 25 l62 3 0 -41 0 -40 40 0 40 0 0 -40 c0 -39 1 -40 35
-40 31 0 35 -3 35 -25 0 -21 -5 -25 -30 -25 -16 0 -30 -4 -30 -10 0 -5 20 -10
45 -10 l45 0 0 49 0 50 -37 3 c-36 3 -38 5 -41 41 -3 35 -5 37 -38 37 -32 0
-34 2 -34 35 l0 35 -90 0 -90 0 0 -50z"/>
<path d="M6930 160 c0 -36 -2 -40 -25 -40 -21 0 -25 5 -25 30 0 20 -5 30 -15
30 -11 0 -15 -12 -15 -45 l0 -45 50 0 50 0 0 40 c0 38 2 40 30 40 28 0 30 -2
30 -40 l0 -40 115 0 115 0 0 -35 0 -35 125 0 125 0 0 90 0 90 -40 0 c-29 0
-40 -4 -40 -15 0 -10 10 -15 30 -15 l30 0 0 -65 0 -65 -105 0 -105 0 0 40 0
40 -115 0 -115 0 0 40 0 40 -50 0 -50 0 0 -40z"/>
<path d="M8530 145 l0 -55 40 0 c38 0 40 -2 40 -30 0 -20 5 -30 15 -30 11 0
15 12 15 45 l0 45 -40 0 c-36 0 -40 3 -40 25 l0 25 140 0 140 0 0 -40 0 -40
115 0 115 0 0 -25 0 -25 -140 0 -140 0 0 40 0 40 -50 0 -50 0 0 -45 c0 -25 5
-45 10 -45 6 0 10 14 10 30 0 25 4 30 25 30 22 0 25 -4 25 -35 l0 -35 170 0
170 0 0 50 0 50 -114 0 -115 0 -3 38 -3 37 -167 3 -168 2 0 -55z"/>
<path d="M9780 100 l0 -80 55 0 55 0 0 35 c0 28 4 35 20 35 16 0 20 -7 20 -30
0 -20 5 -30 15 -30 11 0 15 12 15 45 l0 45 -49 0 -50 0 -3 -37 c-2 -31 -7 -39
-25 -41 -22 -3 -23 0 -23 67 0 56 -3 71 -15 71 -12 0 -15 -16 -15 -80z"/>
<path d="M11610 65 l0 -45 160 0 c100 0 160 4 160 10 0 6 -55 10 -145 10
l-145 0 0 35 c0 24 -5 35 -15 35 -11 0 -15 -12 -15 -45z"/>
<path d="M9550 65 c0 -24 5 -35 15 -35 10 0 15 11 15 35 0 24 -5 35 -15 35
-10 0 -15 -11 -15 -35z"/>
<path d="M6950 30 c0 -6 43 -10 110 -10 67 0 110 4 110 10 0 6 -43 10 -110 10
-67 0 -110 -4 -110 -10z"/>
</g>
</svg>
